<?xml version="1.0" encoding="utf-8"?>
<!-- Generator: Adobe Illustrator 25.1.0, SVG Export Plug-In . SVG Version: 6.00 Build 0)  -->
<svg version="1.1" id="Layer_1" xmlns="http://www.w3.org/2000/svg" xmlns:xlink="http://www.w3.org/1999/xlink" x="0px" y="0px"
	 width="1080px" height="1080px" viewBox="0 0 1080 1080" style="enable-background:new 0 0 1080 1080;" xml:space="preserve">
<style type="text/css">
	.st0{fill:#333333;}
	.st1{fill:#FDF6F0;}
</style>
<g>
	<g>
		<polygon class="st0" points="507.3,1038.5 507.9,1033.8 509.9,1033.8 511.7,1036.8 514.9,1036.9 515.6,1036.1 515.4,1032.9 
			513.9,1030.7 512.2,1030.8 510,1032 508,1032 509.8,1021.6 519.7,1021.6 519.7,1026.8 511.8,1026.8 511.6,1028 515.3,1027.2 
			520,1029.7 521.1,1033.9 519.4,1037.9 514.2,1040.1 		"/>
		<path class="st1" d="M518.7,1022.6v3.2H511l-0.6,3.4l4.8-0.9l4,2.1l0.9,3.4l-1.5,3.3l-4.5,1.9l-5.7-1.3l0.3-2.9h0.5l1.8,3l4.2,0.1
			l1.3-1.4l-0.1-3.9l-2-2.9l-2.6,0.2l-2.1,1.2h-0.5l1.5-8.4H518.7 M520.7,1020.6h-2h-8H509l-0.3,1.7l-1.5,8.4l-0.4,2.3h0.1l-0.2,1.6
			l-0.3,2.9l-0.2,1.8l1.8,0.4l5.7,1.3l0.6,0.1l0.6-0.2l4.5-1.9l0.7-0.3l0.3-0.7l1.5-3.3l0.3-0.6l-0.2-0.7l-0.9-3.4l-0.2-0.8
			l-0.8-0.4l-1.6-0.8h0.2h2v-2v-3.2V1020.6L520.7,1020.6z M512.5,1031.8l1-0.1l1,1.5l0.1,2.5l-0.1,0.1l-2.2,0l-1.2-2l-0.5-0.9
			l0.2-0.1L512.5,1031.8L512.5,1031.8z"/>
	</g>
	<g>
		<path class="st0" d="M521.8,1035.9l-1.4-6.4l2.7-6.8l0.5-0.1c0.9-0.2,1.8-0.4,2.6-0.6c0.9-0.2,1.8-0.4,2.7-0.6l0.5-0.1l4.9,3.8
			l1.4,6.9l-3.2,6.7l-6.3,1.5L521.8,1035.9z M529,1036.4l0.9-0.5l0.4-5.6l-2.1-5.3l-0.9-0.1l-1,0.6l-0.2,6l1.9,4.8L529,1036.4z"/>
		<path class="st1" d="M529.2,1022.3l4.3,3.3l1.2,6.2l-2.8,6l-5.3,1.3l-3.8-3.7l-1.3-5.8l2.4-6
			C525.6,1023.1,527.4,1022.7,529.2,1022.3 M529.2,1037.5l1.6-1l0.5-6.3l-2.4-6.1l-1.9-0.2l-1.8,1.1l-0.3,6.7l2.2,5.5L529.2,1037.5
			 M529.6,1020.1l-0.9,0.2c-0.9,0.2-1.8,0.4-2.7,0.6c-0.9,0.2-1.7,0.4-2.6,0.6l-1,0.2l-0.4,1l-2.4,6l-0.2,0.6l0.1,0.6l1.3,5.8
			l0.1,0.6l0.4,0.4l3.8,3.7l0.8,0.8l1.1-0.3l5.3-1.3l0.9-0.2l0.4-0.9l2.8-6l0.3-0.6l-0.1-0.6l-1.2-6.2l-0.1-0.7l-0.6-0.5l-4.3-3.3
			L529.6,1020.1L529.6,1020.1z M527.1,1026.1l0.3-0.2l0,0l1.8,4.5l-0.4,4.9l-0.1,0.1l-0.2,0l-1.7-4.1L527.1,1026.1L527.1,1026.1z"/>
	</g>
	<g>
		<rect x="535.5" y="1031.3" class="st0" width="9.3" height="3.4"/>
		<path class="st1" d="M543.8,1032.3v1.4h-7.3v-1.4H543.8 M545.8,1030.3h-2h-7.3h-2v2v1.4v2h2h7.3h2v-2v-1.4V1030.3L545.8,1030.3z"
			/>
	</g>
	<g>
		<polygon class="st0" points="544.8,1038.5 545.4,1033.8 547.3,1033.8 549.2,1036.8 552.3,1036.9 553,1036.1 552.9,1032.9 
			551.4,1030.7 549.6,1030.8 547.5,1032 545.5,1032 547.3,1021.6 557.2,1021.6 557.2,1026.8 549.3,1026.8 549.1,1028 552.8,1027.2 
			557.5,1029.7 558.6,1033.9 556.8,1037.9 551.6,1040.1 		"/>
		<path class="st1" d="M556.2,1022.6v3.2h-7.7l-0.6,3.4l4.8-0.9l4,2.1l0.9,3.4l-1.5,3.3l-4.5,1.9l-5.7-1.3l0.3-2.9h0.5l1.8,3
			l4.2,0.1l1.3-1.4l-0.1-3.9l-2-2.9l-2.6,0.2l-2.1,1.2h-0.5l1.5-8.4H556.2 M558.2,1020.6h-2h-8h-1.7l-0.3,1.7l-1.5,8.4l-0.4,2.3h0.1
			l-0.2,1.6l-0.3,2.9l-0.2,1.8l1.8,0.4l5.7,1.3l0.6,0.1l0.6-0.2l4.5-1.9l0.7-0.3l0.3-0.7l1.5-3.3l0.3-0.6l-0.2-0.7l-0.9-3.4
			l-0.2-0.8l-0.8-0.4l-1.6-0.8h0.2h2v-2v-3.2V1020.6L558.2,1020.6z M549.9,1031.8l1-0.1l1,1.5l0.1,2.5l-0.1,0.1l-2.2,0l-1.2-2
			l-0.5-0.9l0.2-0.1L549.9,1031.8L549.9,1031.8z"/>
	</g>
	<g>
		<path class="st0" d="M558.9,1036.8l2.4-1.4l3.9,1.4l2-2v-2.4l-3.2,1.4l-4.8-2.7l-1.1-4.2l2-3.9l3.5-1.4l4.8-0.3l3.6,4.1l0.2,8.5
			l-3.5,4.4l-5.9,2L558.9,1036.8z M565.1,1030.1l2.1-0.8v-1.2l-1.4-3.2l-1.9-0.3l-0.5,1l0.1,2.5L565.1,1030.1z"/>
		<path class="st1" d="M568,1022.4l3.1,3.5l0.2,7.8l-3.1,3.9l-5,1.7l-2.5-2.2l0.8-0.5l4,1.4l2.8-2.8v-4.3l-4.2,1.9l-4-2.2l-0.9-3.4
			l1.7-3.2l3-1.2L568,1022.4 M564.8,1031.3l3.5-1.2v-2.1l-1.7-3.9l-3.2-0.6l-0.9,1.9l0.1,3.1L564.8,1031.3 M568.9,1020.3l-1,0.1
			l-4.2,0.3l-0.3,0l-0.3,0.1l-3,1.2l-0.7,0.3l-0.3,0.7l-1.7,3.2l-0.4,0.7l0.2,0.7l0.9,3.4l0.2,0.8l0.7,0.4l4,2.2l0.9,0.5l0.9-0.4
			l1.3-0.6v0.4l-1.3,1.3l-2.9-1l-0.9-0.3l-0.8,0.5l-0.8,0.5l-2.4,1.4l2,1.8l2.5,2.2l0.9,0.8l1.1-0.4l5-1.7l0.6-0.2l0.4-0.5l3.1-3.9
			l0.4-0.6l0-0.7l-0.2-7.8l0-0.7l-0.5-0.5l-3.1-3.5L568.9,1020.3L568.9,1020.3z M564.4,1025.8L564.4,1025.8l0.7,0l1.1,2.6v0.3
			l-0.8,0.3l-0.9-1.2L564.4,1025.8L564.4,1025.8z"/>
	</g>
	<g>
		<path class="st0" d="M199.2,906.8l-3.3-2.5l-0.9-5.2l2.2-5l4.8-3.4l4.4-0.6l4.1,2l3.3,4.9L210,900l-1.5-1.3l0.6-2.5l-0.1-1.3
			l-1.3-1.3l-2.3,0l-2.2,1.6l-0.4,0.6l4.1,1l2.3,4.7l-1.9,4l-4,1.8L199.2,906.8z M201.3,904.1l1.2-0.5l1.7-2l-0.3-2.5l-2.6-0.9
			l-1.1,1.5l-0.4,3L201.3,904.1z"/>
		<path class="st1" d="M206.2,891.1l3.6,1.7l2.6,3.9l-2.4,2l-0.4-0.3l0.5-2l-0.1-1.8l-1.9-1.8l-3,0l-2.6,1.9l-1.4,2.1l0.1-0.2l5,1.3
			l1.9,3.9l-1.5,3.3l-3.4,1.5l-3.7-0.6l-2.8-2.1l-0.7-4.6l1.9-4.5l4.3-3.1L206.2,891.1 M201.1,905.3l2-0.9l2.1-2.5l-0.4-3.5l-4-1.3
			l-1.6,2.3l-0.5,3.7L201.1,905.3 M206.5,889l-0.6,0.1l-3.9,0.6l-0.5,0.1l-0.4,0.3l-4.3,3.1l-0.5,0.3l-0.2,0.5l-1.9,4.5l-0.2,0.5
			l0.1,0.6l0.7,4.6l0.1,0.8l0.6,0.5l2.8,2.1l0.4,0.3l0.5,0.1l3.7,0.6l0.6,0.1l0.6-0.2l3.4-1.5l0.7-0.3l0.3-0.7l1.5-3.3l0.4-0.9
			l-0.3-0.5l1.1-0.9l2.4-2l1.4-1.2l-1-1.5l-2.6-3.9l-0.3-0.4l-0.5-0.2l-3.6-1.7L206.5,889L206.5,889z M205.9,894.8l1.6,0l0.7,0.7
			l0,0.7l-0.2,0.6l-0.3-0.6l-0.9-0.2l-1.9-0.5L205.9,894.8L205.9,894.8z M201.2,900.2l0.5-0.7l1.3,0.4l0.1,1.4l-1.3,1.5l-0.4,0.2
			l-0.6-0.5L201.2,900.2L201.2,900.2z"/>
	</g>
	<g>
		<path class="st0" d="M207.4,914.2l-0.6-6.2l3-5.8l6.5-3.5l0.5,0.2c0.8,0.4,1.6,0.8,2.4,1.2c0.8,0.4,1.6,0.8,2.4,1.2l0.4,0.2
			l1.3,6.1l-3.4,6.2l-6.8,3.1L207.4,914.2z M212.9,913.2l3.9-4l1.8-5.4L218,903l-1.2-0.2l-4,4.4l-1.6,4.9l0.7,0.9L212.9,913.2z"/>
		<path class="st1" d="M216.3,899.9c1.6,0.8,3.2,1.6,4.9,2.4l1.1,5.3l-3.1,5.6l-6,2.8l-4.9-2.4l-0.5-5.3l2.7-5.2L216.3,899.9
			 M213.3,914.3l4.4-4.6l2.1-6.2l-1.3-1.4l-2.1-0.3l-4.5,5l-1.8,5.6l1.3,1.6L213.3,914.3 M216.3,897.7l-0.9,0.5l-5.7,3.1l-0.5,0.3
			l-0.3,0.5l-2.7,5.2l-0.3,0.5l0.1,0.6l0.5,5.3l0.1,1.1l1,0.5l4.9,2.4l0.9,0.4l0.9-0.4l6-2.8l0.6-0.3l0.3-0.6l3.1-5.6l0.4-0.7
			l-0.2-0.7l-1.1-5.3l-0.2-0.9l-0.8-0.4c-0.8-0.4-1.6-0.8-2.4-1.2c-0.8-0.4-1.6-0.8-2.4-1.2L216.3,897.7L216.3,897.7z M213.7,907.8
			l3.5-3.9l0.3,0l0,0l-1.5,4.6l-3.4,3.5l-0.1,0l-0.1-0.2L213.7,907.8L213.7,907.8z"/>
	</g>
	<g>
		
			<rect x="221.1" y="912.9" transform="matrix(0.6431 -0.7658 0.7658 0.6431 -623.1774 498.055)" class="st0" width="3.4" height="9.3"/>
		<path class="st1" d="M220.4,914.7l5.6,4.7l-0.9,1.1l-5.6-4.7L220.4,914.7 M220.1,911.9l-1.3,1.5l-0.9,1.1l-1.3,1.5l1.5,1.3
			l5.6,4.7l1.5,1.3l1.3-1.5l0.9-1.1l1.3-1.5l-1.5-1.3l-5.6-4.7L220.1,911.9L220.1,911.9z"/>
	</g>
	<g>
		<path class="st0" d="M229.7,932.4l-3.3-2.5l-0.9-5.2l2.2-5l4.8-3.4l4.4-0.6l4.1,2l3.3,4.9l-3.8,3.1l-1.5-1.3l0.6-2.5l-0.1-1.3
			l-1.3-1.3l-2.3,0l-2.2,1.6l-0.4,0.6l4.1,1l2.3,4.7l-1.9,4l-4,1.8L229.7,932.4z M231.8,929.7l1.2-0.5l1.7-2l-0.3-2.5l-2.6-0.9
			l-1.1,1.5l-0.4,3L231.8,929.7z"/>
		<path class="st1" d="M236.7,916.7l3.6,1.7l2.6,3.9l-2.4,2l-0.4-0.3l0.5-2l-0.1-1.8l-1.9-1.8l-3,0l-2.6,1.9l-1.4,2.1l0.1-0.2l5,1.3
			l1.9,3.9l-1.5,3.3l-3.4,1.5l-3.7-0.6l-2.8-2.1l-0.7-4.6l1.9-4.5l4.3-3.1L236.7,916.7 M231.6,930.9l2-0.9l2.1-2.5l-0.4-3.5l-4-1.3
			l-1.6,2.3l-0.5,3.7L231.6,930.9 M237,914.6l-0.6,0.1l-3.9,0.6l-0.5,0.1l-0.4,0.3l-4.3,3.1l-0.5,0.3l-0.2,0.5l-1.9,4.5l-0.2,0.5
			l0.1,0.6l0.7,4.6l0.1,0.8l0.6,0.5l2.8,2.1l0.4,0.3l0.5,0.1l3.7,0.6l0.6,0.1l0.5-0.2l3.4-1.5l0.7-0.3l0.3-0.7l1.5-3.3l0.4-0.9
			l-0.3-0.5l1.1-0.9l2.4-2l1.4-1.2l-1-1.5l-2.6-3.9l-0.3-0.4l-0.5-0.2l-3.6-1.7L237,914.6L237,914.6z M236.3,920.4l1.6,0l0.7,0.7
			l0,0.7l-0.2,0.6l-0.3-0.6l-0.9-0.2l-1.9-0.5L236.3,920.4L236.3,920.4z M231.7,925.8l0.5-0.7l1.3,0.4l0.1,1.4l-1.3,1.5l-0.4,0.2
			l-0.6-0.5L231.7,925.8L231.7,925.8z"/>
	</g>
	<g>
		<path class="st0" d="M237.2,939.3l-0.7-5.2l2.7,0.5l2.1,3.6l2.9-0.2l1.5-1.8l-3.4-1l-2-5.1l1.9-4l4.1-1.7l3.6,1.2l3.9,2.9l0.1,5.5
			l-5.3,6.6l-5.5,1.1L237.2,939.3z M247.6,933.7l0.8-0.9l1-3.4l-1.3-1.5l-1,0.5l-1.5,2l-0.1,2.5L247.6,933.7z"/>
		<path class="st1" d="M246.2,925.4l3.1,1l3.4,2.5l0.1,4.7l-4.9,6l-4.9,1l-4.9-2l-0.5-3.3l0.9,0.2l2.2,3.7l3.9-0.3l2.8-3.3l-4.4-1.2
			l-1.6-4.2l1.5-3.2L246.2,925.4 M247.9,934.9l1.3-1.6l1.2-4.1l-2.1-2.5l-1.9,0.9l-1.9,2.5l-0.1,3.6L247.9,934.9 M246.2,923.2
			l-0.7,0.3l-3.4,1.4l-0.7,0.3l-0.3,0.7l-1.5,3.2l-0.4,0.8l0.3,0.8l1.6,4.2l0.4,0.9l1,0.3l1.4,0.4l-0.3,0.3l-1.8,0.2l-1.5-2.6
			l-0.5-0.8l-0.9-0.2l-0.9-0.2l-2.7-0.5l0.4,2.7l0.5,3.3l0.2,1.2l1.1,0.4l4.9,2l0.6,0.2l0.6-0.1l4.9-1l0.7-0.1l0.5-0.6l4.9-6
			l0.5-0.6l0-0.7l-0.1-4.7l0-1l-0.8-0.6l-3.4-2.5l-0.3-0.2l-0.3-0.1l-3.1-1L246.2,923.2L246.2,923.2z M247.7,929.2L247.7,929.2
			l0.5,0.5l-0.8,2.7l-0.2,0.2l-0.8-0.3l0-1.5L247.7,929.2L247.7,929.2z"/>
	</g>
	<g>
		<polygon class="st0" points="42.7,601.3 41.8,596.2 50.2,599.6 55.8,601.4 54.4,593.3 59.5,592.4 61.6,604.3 60.8,605.5 		"/>
		<path class="st1" d="M58.7,593.6l1.8,10.5l-0.2,0.3l-16.8-3.9l-0.5-2.6l6.7,2.7l7.3,2.3l-1.5-8.7L58.7,593.6 M60.3,591.3l-2,0.3
			l-3.1,0.5l-2,0.3l0.3,2l1,5.5l-4.1-1.3l-6.6-2.7l-3.3-1.3l0.6,3.5l0.5,2.6l0.2,1.3l1.3,0.3l16.8,3.9l1.3,0.3l0.8-1.1l0.2-0.3
			l0.5-0.7l-0.1-0.8l-1.8-10.5L60.3,591.3L60.3,591.3z"/>
	</g>
	<g>
		<path class="st0" d="M46.8,618.7l-2.6-5.9l3.5-5.1l6-2.5l7.2,1.5l0.2,0.5c0.3,0.8,0.7,1.6,1,2.4c0.4,0.9,0.8,1.7,1.1,2.6l0.2,0.4
			l-2.9,5.5l-6.6,2.6L46.8,618.7z M49,615.5l5.6-0.6l4.9-3l-0.1-1l-0.8-0.9l-5.9,0.8l-4.4,2.7l0,1.1L49,615.5z"/>
		<path class="st1" d="M53.8,606.2l6.4,1.3c0.7,1.7,1.4,3.3,2.2,5l-2.5,4.8l-5.9,2.3l-6.4-1.7l-2.2-5l3-4.4L53.8,606.2 M48.6,616.5
			l6.3-0.6l5.6-3.4l-0.1-1.9L59,609l-6.7,0.9l-5,3.1l0,2.1L48.6,616.5 M53.6,604.1l-0.6,0.2l-5.5,2.2l-0.6,0.2l-0.3,0.5l-3,4.4
			l-0.6,0.9l0.4,1l2.2,5l0.4,0.9l0.9,0.3l6.4,1.7l0.6,0.2l0.6-0.2l5.9-2.3l0.7-0.3l0.3-0.7l2.5-4.8l0.4-0.8l-0.4-0.9
			c-0.4-0.9-0.7-1.7-1.1-2.6c-0.3-0.8-0.7-1.6-1-2.4l-0.4-1l-1-0.2l-6.4-1.3L53.6,604.1L53.6,604.1z M53.1,611.8l5.2-0.7l0.2,0.2
			l0,0l-4.2,2.6l-4.9,0.5l-0.1-0.1l0-0.2L53.1,611.8L53.1,611.8z"/>
	</g>
	<g>
		
			<rect x="52" y="620.5" transform="matrix(0.9849 -0.1733 0.1733 0.9849 -107.5556 18.7791)" class="st0" width="3.4" height="9.3"/>
		<path class="st1" d="M53.8,621.4l1.3,7.2l-1.4,0.2l-1.3-7.2L53.8,621.4 M55.4,619.1l-2,0.3l-1.4,0.2l-2,0.3l0.3,2l1.3,7.2l0.3,2
			l2-0.3l1.4-0.2l2-0.3l-0.3-2l-1.3-7.2L55.4,619.1L55.4,619.1z"/>
	</g>
	<g>
		<polygon class="st0" points="48.9,636.4 48,631.3 56.4,634.7 62,636.5 60.6,628.4 65.7,627.5 67.8,639.4 67,640.6 		"/>
		<path class="st1" d="M64.9,628.7l1.8,10.5l-0.2,0.3l-16.8-3.9l-0.5-2.7l6.7,2.7l7.3,2.3l-1.5-8.7L64.9,628.7 M66.5,626.4l-2,0.3
			l-3.1,0.5l-2,0.3l0.3,2l1,5.5l-4.1-1.3l-6.6-2.7l-3.3-1.3l0.6,3.5l0.5,2.7l0.2,1.3l1.3,0.3l16.8,3.9l1.3,0.3l0.8-1.1l0.2-0.3
			l0.5-0.7l-0.1-0.8l-1.8-10.5L66.5,626.4L66.5,626.4z"/>
	</g>
	<g>
		<path class="st0" d="M53.1,652.5l-2.9-5.4l2.8-4.5l1.8,2.1l-0.7,4.1l2.3,1.7l2.4-0.4l-2-2.9l1.8-5.2l4-1.8l4.2,1.3l2,3.2l1.1,4.7
			l-3.4,4.3l-8.3,1.6L53.1,652.5z M61.6,649.4l1.2-0.2l2.9-2l0-1.9l-1.1-0.3l-2.5,0.6l-1.7,1.9L61.6,649.4z"/>
		<path class="st1" d="M62.5,641.1l3.5,1.1l1.7,2.7l1,4.1l-2.9,3.6l-7.6,1.5l-4.4-2.4l-2.5-4.7l1.8-2.8l0.6,0.7l-0.7,4.2l3.2,2.3
			l4.3-0.8l-2.6-3.8l1.5-4.3L62.5,641.1 M61.1,650.5l2.1-0.4l3.6-2.4l0-3.2l-2-0.5l-3,0.7l-2.4,2.7L61.1,650.5 M62.4,638.9l-0.7,0.3
			l-3.2,1.5l-0.8,0.4l-0.3,0.8l-1.5,4.3l-0.3,0.9l0.6,0.8l0.8,1.2l-0.4,0.1l-1.5-1.1l0.5-3l0.2-0.9l-0.6-0.7l-0.6-0.7l-1.8-2.1
			l-1.4,2.3l-1.8,2.8l-0.6,1l0.6,1l2.5,4.7l0.3,0.5l0.5,0.3l4.4,2.4l0.6,0.3l0.7-0.1l7.6-1.5l0.7-0.1l0.5-0.6l2.9-3.6l0.6-0.8
			l-0.2-1l-1-4.1l-0.1-0.3l-0.2-0.3l-1.7-2.7l-0.4-0.6l-0.7-0.2l-3.5-1.1L62.4,638.9L62.4,638.9z M62.7,646.5l1.9-0.4l0.1,0l0,0.6
			l-2.3,1.6l-0.3,0l-0.4-0.7L62.7,646.5L62.7,646.5z"/>
	</g>
	<g>
		<path class="st0" d="M96.3,321.4l-2-3.2l0-1.3l-1.2,0.8l-3.7-1.4l-1.9-3.5l1.6-5.1l2.3-2.6l4.6,0.5l1.5,3.4l1.5-1.1l4.2,0.6l2,4.1
			l-0.5,5.3l-4.3,3.8L96.3,321.4z M100.2,316.6l2.1-1.2l-0.1-0.7l-0.9-0.8l-2.8,0.1l-1,0.7l0.7,1.4L100.2,316.6z M93.4,312.1
			l0.6-0.4l-0.4-1.6l-1.9-0.7l-0.5,0.3l-0.3,1.2l1.2,1.2L93.4,312.1z"/>
		<path class="st1" d="M91.9,306.2l3.5,0.4l1.3,2.9l-0.5,1.8l3.1-2.2l3.3,0.5l1.7,3.4l-0.4,4.7l-3.7,3.2l-3.3-0.4l-1.6-2.5l0-2.9
			l-2.4,1.6l-2.9-1.1l-1.5-2.8l1.5-4.4L91.9,306.2 M93.7,313.1l1.5-1l-0.7-2.7l-2.8-1.1l-1.3,0.8l-0.5,2.2l1.9,1.8L93.7,313.1
			 M100.4,317.7l3.1-1.7l-0.3-1.7l-1.5-1.3l-3.5,0.1l-2,1.3l1.3,2.7L100.4,317.7 M91.1,304.1l-0.7,0.8l-1.8,2.1l-0.3,0.3l-0.1,0.4
			l-1.5,4.4l-0.3,0.8l0.4,0.8l1.5,2.8l0.4,0.7l0.7,0.3l2.9,1.1l1,0.4l0.2-0.1l0.2,0.3l1.6,2.5l0.5,0.8l1,0.1l3.3,0.4l0.9,0.1
			l0.7-0.6l3.7-3.2l0.6-0.5l0.1-0.8l0.4-4.7l0-0.6l-0.2-0.5l-1.7-3.4l-0.5-0.9l-1-0.2l-3.3-0.5l-0.8-0.1l-0.7,0.5l-0.2,0.1l-0.8-1.8
			l-0.5-1.1l-1.2-0.1l-3.5-0.4L91.1,304.1L91.1,304.1z M92,310.6L92,310.6l0.8,0.3l0.1,0.2l-0.3,0L92,310.6L92,310.6z M98.9,315
			l2.1-0.1l0.1,0.1l-1,0.5l-1.1-0.3L98.9,315L98.9,315L98.9,315z"/>
	</g>
	<g>
		<path class="st0" d="M98.9,307.1l-4.5-5.8l0.2-0.5c0.3-0.9,0.5-1.7,0.8-2.6c0.3-0.9,0.5-1.8,0.8-2.6l0.1-0.5l5.8-2.4l6.7,2.3
			l4.2,6.1l-1.8,6.2l-6,1.7L98.9,307.1z M108.4,304.1l0.7-0.9l0-1l-4.7-3.2l-5.7-0.8l-0.6,0.8l0,1.2l5,3.2L108.4,304.1z"/>
		<path class="st1" d="M102,293.9l6,2l3.8,5.5l-1.5,5.2l-5.2,1.4l-5.6-1.8l-4-5.1c0.5-1.7,1-3.5,1.5-5.2L102,293.9 M108.9,305.1
			l1.3-1.6l-0.1-1.9l-5.3-3.6l-6.5-0.9l-1.1,1.5l0.1,2.1l5.7,3.6L108.9,305.1 M101.9,291.8l-0.7,0.3l-5,2l-0.9,0.4l-0.3,0.9
			c-0.3,0.9-0.5,1.8-0.8,2.6c-0.3,0.9-0.5,1.7-0.8,2.6l-0.3,1l0.6,0.8l4,5.1l0.4,0.5l0.6,0.2l5.6,1.8l0.6,0.2l0.6-0.2l5.2-1.4
			l1.1-0.3l0.3-1.1l1.5-5.2l0.3-0.9l-0.5-0.8l-3.8-5.5l-0.4-0.5l-0.6-0.2l-6-2L101.9,291.8L101.9,291.8z M99.3,299.3L99.3,299.3
			l4.8,0.7l4,2.7l0,0.1L108,303l-4.3-0.6l-4.4-2.8L99.3,299.3L99.3,299.3z"/>
	</g>
	<g>
		<rect x="107.1" y="290.1" transform="matrix(0.5 -0.866 0.866 0.5 -196.7779 242.6722)" class="st0" width="9.3" height="3.4"/>
		<path class="st1" d="M113,288.2l1.2,0.7l-3.7,6.4l-1.2-0.7L113,288.2 M112.3,285.5l-1,1.7l-3.7,6.4l-1,1.7l1.7,1l1.2,0.7l1.7,1
			l1-1.7l3.7-6.4l1-1.7l-1.7-1l-1.2-0.7L112.3,285.5L112.3,285.5z"/>
	</g>
	<g>
		<path class="st0" d="M115.4,288.4l-2-3.2l0-1.3l-1.2,0.8l-3.7-1.4l-1.9-3.5l1.6-5.1l2.3-2.6l4.6,0.5l1.5,3.5l1.5-1.1l4.2,0.6
			l2,4.1l-0.5,5.3l-4.3,3.8L115.4,288.4z M119.3,283.7l2.1-1.2l-0.1-0.7l-0.9-0.8l-2.8,0.1l-1,0.7l0.7,1.4L119.3,283.7z
			 M112.4,279.1l0.6-0.4l-0.4-1.6l-1.9-0.7l-0.5,0.3l-0.3,1.2l1.2,1.2L112.4,279.1z"/>
		<path class="st1" d="M110.9,273.2l3.5,0.4l1.3,2.9l-0.5,1.8l3.1-2.2l3.3,0.5l1.7,3.4l-0.4,4.7l-3.7,3.2l-3.3-0.4l-1.6-2.5l0-2.9
			l-2.4,1.6l-2.9-1.1l-1.5-2.8l1.5-4.4L110.9,273.2 M112.7,280.1l1.5-1l-0.7-2.7l-2.8-1.1l-1.3,0.8l-0.5,2.2l1.9,1.8L112.7,280.1
			 M119.4,284.8l3.1-1.7l-0.3-1.7l-1.5-1.3l-3.5,0.1l-2,1.3l1.3,2.7L119.4,284.8 M110.1,271.1l-0.7,0.8l-1.8,2.1l-0.3,0.3l-0.1,0.4
			l-1.5,4.4l-0.3,0.8l0.4,0.8l1.5,2.8l0.4,0.7l0.7,0.3l2.9,1.1l1,0.4l0.2-0.1l0.2,0.3l1.6,2.5l0.5,0.8l1,0.1l3.3,0.4l0.9,0.1
			l0.7-0.6l3.7-3.2l0.6-0.5l0.1-0.8l0.4-4.7l0-0.6l-0.2-0.5l-1.7-3.4l-0.5-0.9l-1-0.2l-3.3-0.5l-0.8-0.1l-0.7,0.5l-0.2,0.1l-0.8-1.8
			l-0.5-1.1l-1.2-0.1l-3.5-0.4L110.1,271.1L110.1,271.1z M111,277.6L111,277.6l0.8,0.3l0.1,0.2l-0.3,0L111,277.6L111,277.6z
			 M117.9,282.1l2.1-0.1l0.1,0.1l-1,0.5l-1.1-0.3L117.9,282.1L117.9,282.1L117.9,282.1z"/>
	</g>
	<g>
		<path class="st0" d="M124.7,274.2l3.2-2.7l-0.7-2.8l-2.1-1.2l-0.4,3.5l-4.7,2.8l-4.2-1.1l-2.4-3.7l0.5-3.7l2.2-4.3l5.4-1.1
			l7.4,4.1l2.1,5.3l-1.2,6.1l-5,1.6L124.7,274.2z M119.6,268.6l2.5-0.4l0.4-2.2l-1-0.6l-3.5-0.4l-1.2,1.5l0.6,0.9L119.6,268.6z"/>
		<path class="st1" d="M121.4,260.9l6.8,3.7l1.8,4.6l-1.1,5.2l-3.2,1l0-0.9l3.3-2.8l-1-3.8l-3.8-2.2l-0.5,4.5l-3.9,2.3l-3.4-0.9
			l-2-3.1l0.5-3.2l1.9-3.7L121.4,260.9 M119.4,269.7l3.5-0.5l0.7-3.6l-1.8-1l-4.3-0.5l-2.1,2.5l1.2,1.7L119.4,269.7 M121.7,258.8
			L121,259l-4.6,0.9l-1,0.2L115,261l-1.9,3.7L113,265l0,0.3l-0.5,3.2l-0.1,0.7l0.4,0.6l2,3.1l0.4,0.7l0.7,0.2l3.4,0.9l0.8,0.2
			l0.7-0.4l3.9-2.3l0.9-0.5l0.1-1l0.2-1.5l0.4,0.2l0.5,1.8l-2.3,2l-0.7,0.6l0,0.9l0,0.9l0,2.7l2.6-0.8l3.2-1l1.1-0.4l0.2-1.1
			l1.1-5.2l0.1-0.6l-0.2-0.6l-1.8-4.6l-0.3-0.7l-0.6-0.3l-6.8-3.7L121.7,258.8L121.7,258.8z M118,266.6l0.4-0.5l2.8,0.3l0.2,0.1
			l-0.2,0.8l-1.5,0.2L118,266.6L118,266.6L118,266.6z"/>
	</g>
	<g>
		<path class="st0" d="M353,85.1l1.7-2.1l4.1,0l1.2-2.6l-0.8-2.2l-2.5,2.4l-5.4-0.9l-2.5-3.6l0.6-4.4l2.8-2.5l4.4-1.9l4.8,2.6
			l3.1,7.9l-1.8,5.4l-4.8,3.8L353,85.1z M356.5,76.7l1.7-1.4l-0.4-1.1l-2.5-2.6l-1.9,0.3l-0.1,1.1l1,2.4L356.5,76.7z"/>
		<path class="st1" d="M356.5,68.4l4.1,2.2l2.8,7.2l-1.6,4.7l-4.2,3.3l-3.1-1.2l0.6-0.7l4.3,0l1.7-3.5l-1.5-4.1l-3.3,3.2l-4.5-0.7
			l-2-2.9l0.5-3.6l2.4-2.1L356.5,68.4 M356.6,78l2.8-2.4l-0.7-2l-3-3.1l-3.2,0.6l-0.2,2.1l1.2,2.9L356.6,78 M356.6,66.2l-0.9,0.4
			l-3.8,1.7l-0.3,0.1l-0.2,0.2l-2.4,2.1l-0.6,0.5l-0.1,0.7l-0.5,3.6l-0.1,0.8l0.4,0.6l2,2.9l0.5,0.7l0.8,0.1l4.5,0.7l1,0.2l0.7-0.7
			l1.1-1l0.1,0.4l-0.8,1.7l-3,0l-0.9,0l-0.6,0.7l-0.6,0.7l-1.7,2.1l2.5,1l3.1,1.2l1.1,0.4l0.9-0.7l4.2-3.3l0.5-0.4l0.2-0.6l1.6-4.7
			l0.2-0.7l-0.3-0.7l-2.8-7.2l-0.3-0.7l-0.6-0.4l-4.1-2.2L356.6,66.2L356.6,66.2z M354.4,72.8l0.6-0.1l2,2L357,75l-0.6,0.5l-1.3-0.8
			L354.4,72.8L354.4,72.8L354.4,72.8z"/>
	</g>
	<g>
		<path class="st0" d="M366.2,79.3l-3.5-5.5l0.2-7.3l0.4-0.3c0.8-0.5,1.5-1,2.3-1.5c0.8-0.5,1.5-1,2.3-1.5l0.4-0.3l5.9,1.9l3.7,6
			l-0.7,7.4l-5.4,3.6L366.2,79.3z M372,77.5l1.1-0.2l0.6-0.8l-1.5-5.4l-3.8-4.3l-0.9,0.2l-0.7,0.9l1.8,5.7L372,77.5z"/>
		<path class="st1" d="M368.5,64l5.1,1.6l3.3,5.4l-0.6,6.6l-4.5,3l-4.9-2.2l-3.2-5L364,67C365.5,66,367,65,368.5,64 M371.7,78.6
			l2-0.4l1.2-1.5l-1.7-6.1l-4.3-4.9l-1.9,0.4l-1.3,1.6l2,6.4L371.7,78.6 M368.2,61.8l-0.8,0.5c-0.8,0.5-1.5,1-2.3,1.5
			c-0.8,0.5-1.5,1-2.3,1.5l-0.9,0.6l0,1l-0.2,6.5l0,0.6l0.3,0.5l3.2,5l0.3,0.5l0.5,0.2l4.9,2.2l1,0.5l0.9-0.6l4.5-3l0.8-0.5l0.1-1
			l0.6-6.6l0.1-0.7l-0.3-0.6l-3.3-5.4l-0.4-0.6l-0.7-0.2l-5.1-1.6L368.2,61.8L368.2,61.8z M368.1,68L368.1,68l3.3,3.6l1.3,4.7
			l-0.1,0.1l-0.2,0l-2.9-3.2l-1.6-5L368.1,68L368.1,68z"/>
	</g>
	<g>
		<polygon class="st0" points="383.4,71.9 378.7,73.6 377.6,70.5 382.2,68.8 380.5,64.1 383.6,63 385.3,67.6 390,66 391.1,69.1 
			386.5,70.8 388.1,75.4 385,76.5 		"/>
		<path class="st1" d="M383,64.3l1.7,4.6l4.6-1.7l0.4,1.2l-4.6,1.7l1.7,4.6l-1.2,0.4l-1.7-4.6l-4.6,1.7l-0.4-1.2l4.6-1.7l-1.7-4.6
			L383,64.3 M384.2,61.7l-1.9,0.7l-1.2,0.4l-1.9,0.7l0.7,1.9l1,2.7l-2.7,1l-1.9,0.7l0.7,1.9l0.4,1.2l0.7,1.9l1.9-0.7l2.7-1l1,2.7
			l0.7,1.9l1.9-0.7l1.2-0.4l1.9-0.7l-0.7-1.9l-1-2.7l2.7-1l1.9-0.7l-0.7-1.9l-0.4-1.2l-0.7-1.9l-1.9,0.7l-2.7,1l-1-2.7L384.2,61.7
			L384.2,61.7z"/>
	</g>
	<g>
		<polygon class="st0" points="677.9,70.4 678.8,68 680.9,68.7 682.1,68.4 685.8,58.2 683.8,58.3 682.6,57.8 683.4,55.5 687.7,55.5 
			689.3,55.2 692,56.2 686.9,70.2 687.6,71.2 689.7,72 688.9,74.3 		"/>
		<path class="st1" d="M689.2,56.3l1.6,0.6l-4.9,13.5L687,72l1.5,0.6l-0.2,0.5l-9.1-3.3l0.2-0.5l1.5,0.5l2-0.5l4.4-12.1l-3.2,0.1
			l-0.2-0.1l0.2-0.7l3.7-0.1L689.2,56.3 M689.4,54.2l-0.5,0.1l-1.3,0.2l-3.6,0.1l-1.4,0l-0.5,1.3l-0.2,0.7l-0.7,1.9l1.9,0.7l0.2,0.1
			l0.4,0.1l0.4,0l0.3,0l-3,8.3l-0.4,0.1l-0.9-0.3l-1.8-0.6l-0.7,1.8l-0.2,0.5l-0.7,1.9l1.9,0.7l9.1,3.3l1.9,0.7l0.7-1.9l0.2-0.5
			l0.7-1.8l-1.8-0.7l-0.9-0.4L688,70l4.6-12.5l0.7-1.9l-1.9-0.7l-1.6-0.6L689.4,54.2L689.4,54.2z"/>
	</g>
	<g>
		<path class="st0" d="M693.7,76.5l-2.6-4.6l0.3-5.5l3.3-4.8l3.9-2.1l4.5,0.4l4.8,3.4l-2.5,4.2l-1.9-0.7l-0.2-2.6l-0.5-1.2l-1.6-0.7
			l-2.1,0.8l-1.6,2.3l-0.2,0.7l4.2-0.4l3.8,3.7l-0.4,4.5l-3.2,3l-4.2,0.8L693.7,76.5z M698.7,74.4l1-0.9l0.9-2.5l-1.1-2.2l-2.8,0.1
			l-0.5,1.8l0.6,2.9L698.7,74.4z"/>
		<path class="st1" d="M698.9,60.5l4,0.4l3.8,2.8l-1.6,2.7l-0.5-0.2l-0.2-2.1l-0.7-1.7l-2.4-1.1l-2.8,1.1l-1.8,2.7l-0.6,2.5l0.1-0.2
			l5.2-0.5l3.1,3l-0.3,3.6l-2.7,2.6l-3.7,0.7l-3.3-1l-2.3-4l0.3-4.9l3-4.4L698.9,60.5 M698.9,75.6l1.6-1.5l1.1-3.1l-1.6-3.2
			l-4.2,0.1l-0.7,2.8l0.8,3.7L698.9,75.6 M698.5,58.4l-0.5,0.3l-3.5,1.8l-0.4,0.2l-0.3,0.4l-3,4.4l-0.3,0.5l0,0.6l-0.3,4.9l0,0.6
			l0.3,0.5l2.3,4l0.4,0.7l0.8,0.2l3.3,1l0.5,0.1l0.5-0.1l3.7-0.7l0.6-0.1l0.4-0.4l2.7-2.6l0.5-0.5l0.1-0.7l0.3-3.6l0.1-1l-0.4-0.4
			l0.7-1.3l1.6-2.7l0.9-1.6l-1.5-1.1l-3.8-2.8l-0.4-0.3l-0.5-0.1l-4-0.4L698.5,58.4L698.5,58.4z M699.8,64.1l1.5-0.5l0.9,0.4
			l0.3,0.7l0.1,0.6l-0.5-0.5l-0.9,0.1l-1.9,0.2L699.8,64.1L699.8,64.1z M697.5,69.9l1.4,0l0.6,1.3l-0.7,1.8l-0.3,0.3l-0.7-0.3
			l-0.5-2.2L697.5,69.9L697.5,69.9z"/>
	</g>
	<g>
		
			<rect x="708.1" y="70.1" transform="matrix(0.3426 -0.9395 0.9395 0.3426 396.3493 715.965)" class="st0" width="3.4" height="9.3"/>
		<path class="st1" d="M706.6,72.9l6.9,2.5l-0.5,1.3l-6.9-2.5L706.6,72.9 M705.4,70.3l-0.7,1.9l-0.5,1.3l-0.7,1.9l1.9,0.7l6.9,2.5
			l1.9,0.7l0.7-1.9l0.5-1.3l0.7-1.9l-1.9-0.7l-6.9-2.5L705.4,70.3L705.4,70.3z"/>
	</g>
	<g>
		<polygon class="st0" points="712,82.8 712.8,80.4 715,81.1 716.2,80.8 719.9,70.6 717.9,70.7 716.6,70.2 717.4,67.9 721.7,67.9 
			723.4,67.6 726.1,68.6 721,82.6 721.7,83.6 723.8,84.4 722.9,86.7 		"/>
		<path class="st1" d="M723.2,68.7l1.6,0.6l-4.9,13.5l1.1,1.6l1.5,0.6l-0.2,0.5l-9.1-3.3l0.2-0.5l1.5,0.5l2-0.5l4.4-12.1l-3.2,0.1
			l-0.2-0.1l0.2-0.7l3.7-0.1L723.2,68.7 M723.5,66.6l-0.5,0.1l-1.3,0.2l-3.6,0.1l-1.4,0l-0.5,1.3l-0.2,0.7l-0.7,1.9l1.9,0.7l0.2,0.1
			l0.4,0.1l0.4,0l0.3,0l-3,8.3l-0.4,0.1l-0.9-0.3l-1.8-0.6l-0.7,1.8l-0.2,0.5l-0.7,1.9l1.9,0.7l9.1,3.3l1.9,0.7l0.7-1.9l0.2-0.5
			l0.7-1.8l-1.8-0.7l-0.9-0.4l-0.2-0.3l4.6-12.5l0.7-1.9l-1.9-0.7l-1.6-0.6L723.5,66.6L723.5,66.6z"/>
	</g>
	<g>
		<path class="st0" d="M726.5,88.7L724,84l2.7-0.5l3.2,2.6l2.6-1.2l0.8-2.2l-3.5,0.3l-3.6-4.1l0.4-4.4l3.2-3l3.8-0.1l4.6,1.4l2,5.1
			l-2.7,8l-4.8,3L726.5,88.7z M734.3,79.9l0.4-1.1l-0.2-3.5l-1.7-1l-0.8,0.8l-0.8,2.4l0.8,2.4L734.3,79.9z"/>
		<path class="st1" d="M733.5,72.4l4,1.2l1.7,4.3l-2.5,7.3l-4.3,2.6l-5.3-0.1l-1.6-2.9l0.9-0.2l3.3,2.7l3.6-1.6l1.5-4.1l-4.5,0.3
			l-3-3.4l0.3-3.6l2.7-2.5L733.5,72.4 M735,80.9l0.7-2l-0.3-4.3l-2.8-1.6l-1.5,1.5l-0.9,3l1.1,3.4L735,80.9 M733.7,70.4l-0.3,0
			l-3.2,0.1l-0.7,0l-0.5,0.5l-2.7,2.5l-0.6,0.5l-0.1,0.8l-0.3,3.6l-0.1,0.8l0.6,0.6l3,3.4l0.7,0.8l1-0.1l1.5-0.1l-0.1,0.4L730,85
			l-2.3-1.9l-0.7-0.6l-0.9,0.2l-0.9,0.2l-2.7,0.5l1.3,2.4l1.6,2.9l0.5,1l1.2,0l5.3,0.1l0.6,0l0.5-0.3l4.3-2.6l0.6-0.4l0.2-0.7
			l2.5-7.3l0.2-0.7l-0.3-0.7l-1.7-4.3l-0.4-0.9l-0.9-0.3l-4-1.2L733.7,70.4L733.7,70.4z M732.9,75.6L732.9,75.6l0.6,0.3l0.2,2.8
			l-0.1,0.2l-0.8,0l-0.5-1.4L732.9,75.6L732.9,75.6z"/>
	</g>
	<g>
		<polygon class="st0" points="945.6,266.4 947.7,265.3 957.4,267.5 960.8,267.1 961.7,265.1 961.1,263.3 956.7,263.3 955.1,261.3 
			960.4,259 964.6,262.3 966.8,266.9 965.4,271.3 960.6,273.1 952.3,269.3 957.2,277.1 952.7,278.5 		"/>
		<path class="st1" d="M960.2,260.1l3.6,2.8l1.9,4l-1.2,3.6l-3.9,1.5l-10-4.6l-0.8-0.1l5.8,9.1l-2.5,0.8l-6.1-10.5l0.8-0.5l9.4,2.2
			l4.2-0.5l1.3-2.9l-0.9-2.8l-4.7,0l-0.5-0.6L960.2,260.1 M960.5,257.8l-1.1,0.5l-3.5,1.6l-2.3,1l1.5,2l0.5,0.6l0.6,0.8l1,0l3.3,0
			l0.2,0.7l-0.5,1.2l-2.7,0.3l-9.1-2.1l-0.7-0.2l-0.7,0.4l-0.8,0.5l-1.8,1l1,1.8l6.1,10.5l0.8,1.4l1.5-0.5l2.5-0.8l2.5-0.8l-1.4-2.2
			l-2.4-3.8l4.9,2.3l0.8,0.4l0.8-0.3l3.9-1.5l0.9-0.3l0.3-0.9l1.2-3.6l0.3-0.8l-0.4-0.7l-1.9-4l-0.2-0.4l-0.4-0.3l-3.6-2.8
			L960.5,257.8L960.5,257.8z"/>
	</g>
	<g>
		<path class="st0" d="M955.1,283.7l1.5-6l4.8-4.4l7.2-1l0.4,0.4c0.6,0.7,1.2,1.3,1.9,2c0.6,0.7,1.3,1.3,1.9,2l0.3,0.3l-0.8,6.2
			l-5.3,4.7l-7.4,0.6L955.1,283.7z M960.6,284.7l5.1-2.5l3.5-4.5l-0.4-0.9l-1.1-0.6l-5.3,2.8l-3.2,4.1l0.4,1.1L960.6,284.7z"/>
		<path class="st1" d="M968.3,273.4c1.2,1.3,2.5,2.6,3.7,3.9l-0.7,5.3l-4.8,4.2l-6.6,0.6l-3.8-3.9l1.3-5.2l4.4-4L968.3,273.4
			 M960.6,285.8l5.7-2.8l4.1-5.1l-0.7-1.7l-1.8-1l-6,3.1l-3.6,4.7l0.7,2L960.6,285.8 M969.1,271.2l-1,0.1l-6.4,0.9l-0.6,0.1
			l-0.5,0.4l-4.4,4l-0.4,0.4l-0.1,0.6l-1.3,5.2L954,284l0.8,0.8l3.8,3.9l0.7,0.7l1-0.1l6.6-0.6l0.7-0.1l0.5-0.4l4.8-4.2l0.6-0.5
			l0.1-0.7l0.7-5.3l0.1-0.9l-0.7-0.7c-0.6-0.7-1.3-1.3-1.9-2c-0.6-0.7-1.2-1.3-1.9-2L969.1,271.2L969.1,271.2z M963.1,279.8l4.6-2.4
			l0.3,0.2l0,0l-3,3.8l-4.4,2.1l-0.1-0.1l-0.1-0.2L963.1,279.8L963.1,279.8z"/>
	</g>
	<g>
		
			<rect x="966.6" y="287.5" transform="matrix(0.8659 -0.5001 0.5001 0.8659 -16.3089 523.4797)" class="st0" width="3.4" height="9.3"/>
		<path class="st1" d="M967.1,288.6l3.7,6.4l-1.2,0.7l-3.7-6.4L967.1,288.6 M967.8,285.9l-1.7,1l-1.2,0.7l-1.7,1l1,1.7l3.7,6.4
			l1,1.7l1.7-1l1.2-0.7l1.7-1l-1-1.7l-3.7-6.4L967.8,285.9L967.8,285.9z"/>
	</g>
	<g>
		<polygon class="st0" points="964.7,299.4 966.8,298.3 976.4,300.6 979.9,300.2 980.8,298.1 980.2,296.4 975.7,296.4 974.2,294.3 
			979.5,292 983.7,295.4 985.9,300 984.4,304.3 979.7,306.2 971.3,302.3 976.2,310.1 971.7,311.6 		"/>
		<path class="st1" d="M979.3,293.2l3.6,2.8l1.9,4l-1.2,3.6l-3.9,1.5l-10-4.6l-0.8-0.1l5.8,9.1l-2.5,0.8l-6.1-10.5l0.8-0.5l9.4,2.2
			l4.2-0.5l1.3-2.9l-0.9-2.8l-4.7,0l-0.5-0.6L979.3,293.2 M979.6,290.9l-1.1,0.5l-3.5,1.6l-2.3,1l1.5,2l0.5,0.6l0.6,0.8l1,0l3.3,0
			l0.2,0.7l-0.5,1.2l-2.7,0.3l-9.1-2.1l-0.7-0.2l-0.7,0.4l-0.8,0.5l-1.8,1l1,1.8l6.1,10.5l0.8,1.4l1.5-0.5l2.5-0.8l2.5-0.8l-1.4-2.2
			l-2.4-3.8l4.9,2.3l0.8,0.4l0.8-0.3l3.9-1.5l0.9-0.3l0.3-0.9l1.2-3.6l0.3-0.8l-0.4-0.7l-1.9-4l-0.2-0.4l-0.4-0.3l-3.6-2.8
			L979.6,290.9L979.6,290.9z"/>
	</g>
	<g>
		<path class="st0" d="M978.3,320.2l-4.6-4.1l1.1-5.2l2.4,1.4l0.7,4.1l2.8,0.8l2.1-1.2l-2.8-2.1l-0.1-5.5l3.1-3.1l4.4-0.2l2.9,2.3
			l2.7,4l-1.8,5.2l-7.3,4.4L978.3,320.2z M985.3,314.4l1-0.6l2.1-2.9l-0.7-1.8l-1.1,0.1l-2.1,1.4l-0.9,2.3L985.3,314.4z"/>
		<path class="st1" d="M987,306.1l2.5,2l2.3,3.5l-1.5,4.4l-6.6,4l-4.9-0.7l-4-3.5l0.7-3.3l0.8,0.4l0.8,4.2l3.8,1l3.8-2.2l-3.7-2.7
			l-0.1-4.5l2.5-2.5L987,306.1 M985.2,315.6l1.8-1l2.5-3.5l-1.1-3l-2.1,0.2l-2.6,1.7l-1.3,3.3L985.2,315.6 M987.6,304.1l-0.7,0
			l-3.6,0.2l-0.8,0l-0.5,0.5l-2.5,2.5l-0.6,0.6l0,0.9l0.1,4.5l0,1l0.8,0.6l1.2,0.9l-0.4,0.2l-1.8-0.5l-0.5-3l-0.2-0.9l-0.8-0.5
			l-0.8-0.4l-2.4-1.3l-0.6,2.7l-0.7,3.3l-0.2,1.1l0.9,0.8l4,3.5l0.4,0.4l0.6,0.1l4.9,0.7l0.7,0.1l0.6-0.4l6.6-4l0.6-0.4l0.2-0.7
			l1.5-4.4l0.3-0.9l-0.5-0.8l-2.3-3.5l-0.2-0.3l-0.3-0.2l-2.5-2L987.6,304.1L987.6,304.1z M987,310.2L987,310.2l0.3,0.6l-1.7,2.3
			l-0.2,0.1l-0.6-0.5l0.6-1.4L987,310.2L987,310.2z"/>
	</g>
	<g>
		<path class="st0" d="M837.6,939.9l1.5-1.4l0.3-1.1l-1-1.1l-5.2,4.4l-1.4-1.7l-1.1-14l2.9-2.5l6.9,8.2l2.5-2.1l1.9,2.2l-2.5,2.1
			l0.9,1.1l1.1-0.1l1.6-1.2l1.6,1.9l-8.4,7L837.6,939.9z M834.4,935.9l2.2-1.8l-2.5-3L834.4,935.9z"/>
		<path class="st1" d="M833.5,924l6.9,8.2l2.5-2.1l0.6,0.7l-2.5,2.1l1.9,2.3l1.9-0.1l1.1-0.8l0.3,0.4l-6.9,5.7L839,940l1-0.9
			l0.5-1.9l-1.9-2.3l-5.2,4.4l-0.6-0.7l-1-13.1L833.5,924 M834.2,937.3l3.7-3.1l-5.2-6.1l0.6,8.3L834.2,937.3 M833.7,921.1l-1.5,1.3
			l-1.8,1.5l-0.8,0.7l0.1,1l1,13.1l0.1,0.6l0.4,0.5l0.6,0.7l1.3,1.5l1.5-1.3l3.7-3.1l-0.1,0.2l-0.6,0.5l-1.4,1.3l1.2,1.5l0.3,0.4
			l1.3,1.5l1.5-1.3l6.9-5.7l1.5-1.3l-1.3-1.5l-0.3-0.4l-1.2-1.5l-1.5,1.1l-0.6,0.5l-0.2,0l0.9-0.8l1.5-1.3l-1.3-1.5l-0.6-0.7
			l-1.3-1.5l-1.5,1.3l-1,0.8l-5.6-6.7L833.7,921.1L833.7,921.1z"/>
	</g>
	<g>
		<path class="st0" d="M845.3,931.3l-5.2-4l-2.3-7l0.3-0.4c0.5-0.7,1.1-1.5,1.6-2.2c0.5-0.7,1.1-1.5,1.6-2.2l0.3-0.4l6.2-0.2
			l5.5,4.4l1.9,7.2l-3.8,5.2L845.3,931.3z M850.1,927.7l1-0.6l0.3-1l-3.3-4.6l-5-2.7l-0.8,0.5l-0.4,1.1l3.6,4.7L850.1,927.7z"/>
		<path class="st1" d="M847.6,916l5,4l1.7,6.4l-3.2,4.4l-5.3-0.4l-4.7-3.6l-2-6.2c1.1-1.5,2.1-2.9,3.2-4.4L847.6,916 M850.2,928.9
			l1.8-1l0.6-1.8l-3.7-5.2l-5.8-3.1l-1.6,1l-0.6,2l4.1,5.3L850.2,928.9 M848.2,914l-0.7,0l-5.4,0.2l-1,0l-0.6,0.8
			c-0.5,0.7-1.1,1.5-1.6,2.2c-0.5,0.7-1.1,1.4-1.6,2.2l-0.6,0.8l0.3,1l2,6.2l0.2,0.6l0.5,0.4l4.7,3.6l0.5,0.4l0.6,0l5.3,0.4l1.1,0.1
			l0.7-0.9l3.2-4.4l0.6-0.8l-0.2-0.9l-1.7-6.4l-0.2-0.6l-0.5-0.4l-5-4L848.2,914L848.2,914z M843.2,920.1L843.2,920.1l4.3,2.3l2.9,4
			l0,0.1l-0.2,0.1l-3.9-2l-3.2-4.1L843.2,920.1L843.2,920.1z"/>
	</g>
	<g>
		
			<rect x="852.8" y="915.6" transform="matrix(0.7661 -0.6428 0.6428 0.7661 -389.0139 765.7447)" class="st0" width="9.3" height="3.4"/>
		<path class="st1" d="M859.8,914.4l0.9,1.1l-5.6,4.7l-0.9-1.1L859.8,914.4 M860.1,911.6l-1.5,1.3l-5.6,4.7l-1.5,1.3l1.3,1.5
			l0.9,1.1l1.3,1.5l1.5-1.3l5.6-4.7l1.5-1.3l-1.3-1.5l-0.9-1.1L860.1,911.6L860.1,911.6z"/>
	</g>
	<g>
		<path class="st0" d="M866.9,915.3l1.5-1.4l0.3-1.1l-1-1.1l-5.2,4.4l-1.4-1.7l-1.1-14l2.9-2.5l6.9,8.2l2.5-2.1l1.9,2.2l-2.5,2.1
			l0.9,1.1l1.1-0.1l1.6-1.2l1.6,1.9l-8.4,7L866.9,915.3z M863.7,911.3l2.2-1.8l-2.5-3L863.7,911.3z"/>
		<path class="st1" d="M862.7,899.4l6.9,8.2l2.5-2.1l0.6,0.7l-2.5,2.1l1.9,2.3l1.9-0.1l1.1-0.8l0.3,0.4l-6.9,5.7l-0.3-0.4l1-0.9
			l0.5-1.9l-1.9-2.3l-5.2,4.4L862,914l-1-13.1L862.7,899.4 M863.5,912.8l3.7-3.1l-5.2-6.1l0.6,8.3L863.5,912.8 M863,896.6l-1.5,1.3
			l-1.8,1.5l-0.8,0.7l0.1,1l1,13.1l0.1,0.6l0.4,0.5l0.6,0.7l1.3,1.5l1.5-1.3l3.7-3.1l-0.1,0.2l-0.6,0.5l-1.4,1.3l1.2,1.5l0.3,0.4
			l1.3,1.5l1.5-1.3l6.9-5.7l1.5-1.3l-1.3-1.5l-0.3-0.4l-1.2-1.5l-1.5,1.1l-0.6,0.5l-0.2,0l0.9-0.8l1.5-1.3l-1.3-1.5l-0.6-0.7
			l-1.3-1.5l-1.5,1.3l-1,0.8l-5.6-6.7L863,896.6L863,896.6z"/>
	</g>
	<g>
		<path class="st0" d="M874.9,907.7l0.9-2.6l3.9-1.4l0.3-2.9l-1.5-1.8l-1.5,3.2l-5.4,1l-3.6-2.5l-1-4.3l1.8-3.3l3.5-3.3l5.5,0.8
			l5.6,6.4l0.2,5.6l-3.2,5.3L874.9,907.7z M875.3,898.6l1.1-2l-0.8-0.9l-3.2-1.6l-1.7,1l0.3,1l1.7,1.9L875.3,898.6z"/>
		<path class="st1" d="M872.5,890.8l4.6,0.7l5.1,5.8l0.1,5l-2.8,4.5l-3.3-0.1l0.3-0.9l4-1.5l0.4-3.9l-2.8-3.3l-2,4.1l-4.5,0.9
			l-2.9-2.1l-0.8-3.6l1.5-2.8L872.5,890.8 M875.8,899.8l1.9-3.2l-1.3-1.6l-3.9-1.9l-2.8,1.6l0.6,2l2.1,2.3L875.8,899.8 M871.9,888.7
			l-0.7,0.7l-3,2.9l-0.2,0.2l-0.2,0.3l-1.5,2.8l-0.4,0.7l0.2,0.7l0.8,3.6l0.2,0.8l0.6,0.4l2.9,2.1l0.7,0.5l0.8-0.2l4.5-0.9l1-0.2
			l0.4-0.9l0.6-1.3l0.3,0.3l-0.2,1.8l-2.9,1.1l-0.9,0.3l-0.3,0.9l-0.3,0.9l-0.9,2.6l2.7,0.1l3.3,0.1l1.2,0l0.6-1l2.8-4.5l0.3-0.5
			l0-0.6l-0.1-5l0-0.7l-0.5-0.5l-5.1-5.8l-0.5-0.6l-0.7-0.1l-4.6-0.7L871.9,888.7L871.9,888.7z M872,895.7l0.5-0.3l2.5,1.2l0.2,0.2
			l-0.4,0.7l-1.5-0.3L872,895.7L872,895.7L872,895.7z"/>
	</g>
	<g>
		<polygon class="st0" points="1020.3,657.3 1020.8,654.7 1025.3,653.3 1025.3,651.1 1024,649.9 1021.4,650.5 1019.9,652.2 
			1019.5,654.4 1016.7,653.9 1017.2,651.2 1015.6,649 1014,649 1012.9,651.1 1016.5,654.2 1016.2,656.6 1010.2,655 1010,649.4 
			1011.6,644.6 1015.4,643 1019.1,645 1019.3,646.3 1019.9,644.8 1024.4,643.9 1028.3,647.7 1028.6,653.3 1025.9,657.8 		"/>
		<path class="st1" d="M1015.4,644.1l2.8,1.5l0.7,4.4l1.7-4.3l3.4-0.7l3.3,3.2l0.3,4.9l-2.3,3.8l-3.8-0.4l0.2-0.9l4.6-1.4l-0.1-3.4
			l-1.9-1.8l-3.4,0.8l-2,2.2l-0.3,1.5l-0.8-0.1l0.4-2.1l-2.1-3l-2.8,0l-1.7,3.3l3.7,3.2l-0.1,0.8l-4.2-1.2l-0.2-4.7l1.5-4.2
			L1015.4,644.1 M1015.5,641.9l-0.9,0.4l-3,1.3l-0.8,0.3l-0.3,0.8l-1.5,4.2l-0.1,0.4l0,0.4l0.2,4.7l0.1,1.5l1.4,0.4l4.2,1.2l2.3,0.6
			l0.2-2.4l0-0.5l0.2,0l0.8,0.1l1.3,0.2l-0.1,0.6l-0.4,2.1l2.2,0.2l3.8,0.4l1.3,0.1l0.6-1.1l2.3-3.8l0.3-0.5l0-0.6l-0.3-4.9l0-0.8
			l-0.6-0.5l-3.3-3.2l-0.8-0.7l-1,0.2l-3.4,0.7l-1,0.2l-0.1,0l-2.8-1.5L1015.5,641.9L1015.5,641.9z M1014.6,650l0.5,0l1,1.4l-0.2,1
			l-1.8-1.6L1014.6,650L1014.6,650z M1022,651.4l1.8-0.4l0.6,0.5l0,1.1l-3.2,1l-0.5,0.1l0-0.2l0.2-0.9L1022,651.4L1022,651.4z"/>
	</g>
	<g>
		<path class="st0" d="M1013.2,639.7l0-0.5c0-0.9-0.1-1.8-0.2-2.7c-0.1-0.9-0.1-1.8-0.2-2.7l0-0.5l4.6-4.2l7.1-0.2l6.1,4.3l0.4,6.5
			l-5,3.6l-6.5,0.3L1013.2,639.7z M1022.3,638.5l5-1.1l0.4-1.1l-0.4-0.9l-5.5-1.4l-5.6,1.2l-0.3,0.9l0.5,1.1L1022.3,638.5z"/>
		<path class="st1" d="M1024.1,630l5.4,3.8l0.3,5.4l-4.4,3.1l-5.9,0.2l-5.5-3.4c-0.1-1.8-0.2-3.6-0.3-5.4l4-3.6L1024.1,630
			 M1022.3,639.6l5.8-1.2l0.7-2l-0.7-1.8l-6.2-1.6l-6.4,1.3l-0.6,1.8l0.8,1.9L1022.3,639.6 M1024.7,627.9l-0.7,0l-6.4,0.1l-0.7,0
			l-0.6,0.5l-4,3.6l-0.7,0.6l0.1,0.9c0.1,0.9,0.1,1.8,0.2,2.7c0.1,0.9,0.1,1.8,0.2,2.7l0.1,1l0.9,0.5l5.5,3.4l0.5,0.3l0.6,0l5.9-0.2
			l0.6,0l0.5-0.3l4.4-3.1l0.9-0.6l-0.1-1.1l-0.3-5.4l-0.1-1l-0.8-0.6l-5.4-3.8L1024.7,627.9L1024.7,627.9z M1017,636.1l4.8-1
			l4.7,1.2l0,0.1l-0.1,0.2l-4.3,0.9l-5.1-1.1L1017,636.1L1017,636.1L1017,636.1z"/>
	</g>
	<g>
		
			<rect x="1021.5" y="623" transform="matrix(0.1736 -0.9848 0.9848 0.1736 232.8374 1526.9358)" class="st0" width="9.3" height="3.4"/>
		<path class="st1" d="M1026.2,621l1.4,0.2l-1.3,7.2l-1.4-0.2L1026.2,621 M1024.5,618.7l-0.3,2l-1.3,7.2l-0.3,2l2,0.3l1.4,0.2l2,0.3
			l0.3-2l1.3-7.2l0.3-2l-2-0.3l-1.4-0.2L1024.5,618.7L1024.5,618.7z"/>
	</g>
	<g>
		<polygon class="st0" points="1027,619.7 1027.4,617.1 1031.9,615.7 1031.9,613.5 1030.7,612.3 1028.1,612.9 1026.5,614.6 
			1026.1,616.8 1023.4,616.3 1023.8,613.6 1022.3,611.4 1020.6,611.5 1019.6,613.6 1023.1,616.6 1022.9,619.1 1016.8,617.4 
			1016.6,611.8 1018.3,607 1022.1,605.4 1025.7,607.4 1025.9,608.7 1026.5,607.3 1031,606.3 1034.9,610.1 1035.2,615.7 
			1032.5,620.2 		"/>
		<path class="st1" d="M1022,606.5l2.8,1.5l0.7,4.4l1.7-4.3l3.4-0.8l3.3,3.2l0.3,4.9l-2.3,3.8l-3.8-0.4l0.2-0.9l4.6-1.4l-0.1-3.4
			l-1.9-1.8l-3.4,0.8l-2,2.2l-0.3,1.5l-0.8-0.1l0.4-2.1l-2.1-3l-2.8,0l-1.7,3.3l3.7,3.2l-0.1,0.8l-4.2-1.2l-0.2-4.7l1.5-4.2
			L1022,606.5 M1022.1,604.3l-0.9,0.4l-3,1.3l-0.8,0.3l-0.3,0.8l-1.5,4.2l-0.1,0.4l0,0.4l0.2,4.7l0.1,1.5l1.4,0.4l4.2,1.2l2.3,0.6
			l0.2-2.4l0-0.5l0.2,0l0.8,0.1l1.3,0.2l-0.1,0.6l-0.4,2.1l2.2,0.2l3.8,0.4l1.3,0.1l0.7-1.1l2.3-3.8l0.3-0.5l0-0.6l-0.3-4.9l0-0.8
			l-0.6-0.5l-3.3-3.2l-0.8-0.7l-1,0.2l-3.4,0.8l-1,0.2l-0.1,0l-2.8-1.5L1022.1,604.3L1022.1,604.3z M1021.2,612.4l0.5,0l1,1.4
			l-0.2,1l-1.8-1.6L1021.2,612.4L1021.2,612.4z M1028.6,613.8l1.8-0.4l0.6,0.5l0,1.1l-3.2,1l-0.5,0.1l0-0.2l0.2-0.9L1028.6,613.8
			L1028.6,613.8z"/>
	</g>
	<g>
		<path class="st0" d="M1032.4,603.7l2-3.6l-1.6-2.4l-2.4-0.4l0.9,3.4l-3.4,4.3l-4.4,0.4l-3.5-2.7l-0.8-3.7l0.5-4.8l4.7-2.9l8.4,1.3
			l3.7,4.2l0.9,6.1l-4.2,3.3L1032.4,603.7z M1025.7,600.2l2.2-1.2l-0.4-2.2l-1.2-0.2l-3.5,0.9l-0.7,1.8l0.9,0.6L1025.7,600.2z"/>
		<path class="st1" d="M1024.7,592.4l7.7,1.2l3.3,3.7l0.8,5.3l-2.6,2.1l-0.3-0.8l2.1-3.7l-2.2-3.2l-4.3-0.8l1.1,4.4l-2.9,3.5
			l-3.6,0.3l-2.9-2.2l-0.7-3.2l0.5-4.1L1024.7,592.4 M1025.8,601.2l3.1-1.7l-0.6-3.6l-2.1-0.4l-4.2,1l-1.1,3.1l1.7,1.2L1025.8,601.2
			 M1024.3,590.3l-0.6,0.4l-4,2.4l-0.8,0.5l-0.1,1l-0.5,4.1l0,0.3l0.1,0.3l0.7,3.2l0.2,0.7l0.6,0.5l2.9,2.2l0.6,0.5l0.8-0.1l3.6-0.3
			l0.8-0.1l0.5-0.7l2.9-3.5l0.6-0.8l-0.2-1l-0.4-1.4l0.4,0.1l1,1.5l-1.5,2.6l-0.5,0.8l0.3,0.9l0.3,0.8l1,2.6l2.2-1.7l2.6-2.1
			l0.9-0.7l-0.2-1.2l-0.8-5.3l-0.1-0.6l-0.4-0.4l-3.3-3.7l-0.5-0.5l-0.7-0.1l-7.7-1.2L1024.3,590.3L1024.3,590.3z M1023.7,598.3
			l2.7-0.7l0.3,0l0.1,0.8l-1.3,0.7l-2-0.3l-0.1,0L1023.7,598.3L1023.7,598.3z"/>
	</g>
</g>
</svg>
