<?xml version="1.0" encoding="utf-8"?>
<!-- Generator: Adobe Illustrator 25.2.3, SVG Export Plug-In . SVG Version: 6.00 Build 0)  -->
<svg version="1.1" id="Layer_1" xmlns="http://www.w3.org/2000/svg" xmlns:xlink="http://www.w3.org/1999/xlink" x="0px" y="0px"
	 viewBox="0 0 1080 1080" style="enable-background:new 0 0 1080 1080;" xml:space="preserve">
<style type="text/css">
	.st0{fill:#FDF6F0;}
	.st1{fill:#333333;}
</style>
<g>
	<path class="st0" d="M569.7,861.6l-6.3,0.4l-4.3,1.7V862h-13.9l-1.8,10.1h-7.2l-1.1-5.7l-6.5-5l-1.4,0.3c-0.9,0.2-1.8,0.4-2.7,0.7
		c-0.9,0.2-1.9,0.4-2.8,0.7l-1.5,0.4l-0.2,0.5V862h-13.9l-2.6,14.8h0.2l-0.7,6.4l9.5,2.1l6.7-2.8l0.6-1.4l4.5,4.4l8.5-2.1l1.8-3.9
		h7.9l-0.4,3.6l9.5,2.1l6.7-2.8l0.2-0.5l4.1,3.7l7.8-2.6l4.5-5.6l-0.2-10.3L569.7,861.6z M510.8,877.8l-1.1-1.8l1.1-0.6l0.3,0
		l0.6,0.9l0.1,1.5L510.8,877.8z M526.9,875l-0.4-1.1l0.1-1.8l0.5,1.2L526.9,875z M549.9,877.8l-1.1-1.8l1.1-0.6l0.3,0l0.6,0.9
		l0.1,1.5L549.9,877.8z"/>
	<path class="st0" d="M778.1,767l-7.3-1.1l-4.6,4.3l-2.3,4.4l0.5,2.1l-2.4-2.9l-5.3,4.5l1,12.3l-6.3,5.3l-4.5-3.6l-8.2,0.3l-0.9,1.1
		c-0.6,0.8-1.1,1.5-1.7,2.3c-0.6,0.8-1.1,1.5-1.7,2.3l-0.9,1.2l1.2,3.7l-3.3-3.9l-5.3,4.5l1.3,16.2l3.2,3.8l3.1-2.6l3.1,3.8
		l11.8-9.9l-1.3-1.5l3.5,0.3l5.2-7.1l-1.1-4.2l5.8-4.9l0.4,0.5l3.1-2.6l3.1,3.8l11.7-9.9l-0.6-0.7l2.4,0.1l4.3-7l-0.2-7.2L778.1,767
		z M745,802.7l1,1.3l-1-0.5l-1.1-1.4L745,802.7z"/>
	<path class="st0" d="M880.4,578.8l4.9-3.8l-1.2-8.1l-4.8-5.4l-10.1-1.6l-6.3,3.9l-0.7,6.3l1,4.9l1.1,0.8l-2.7,1.2l-2.2,6.1l0.3,7.6
		l8.6,2.4l-1.1,6.3l-5.8,0.1l-6,5.5l0.1,1.4c0.1,1,0.1,1.9,0.2,2.9c0.1,0.9,0.1,1.8,0.2,2.8l0.1,1.6l1.9,1.2l-3.2,1.3l-2.1,6.1
		l0.3,7.6l9.9,2.8l0.3-3.1l0.5,0.1l-0.5,3l9.1,0.9l3.8-6.3l-0.4-7.2l-2.7-2.6l5.5-3.9l-0.6-8.8l-3.5-2.5l1.5-8.3l3.3,0.3l3.8-6.3
		l-0.4-7.2L880.4,578.8z M875.1,586.1l-0.9,0.3l0.1-0.1L875.1,586.1z M866.7,608.6l1.6,0.4l-1.1,0.2l-1.8-0.4L866.7,608.6z
		 M867.3,625.6l0.1-0.1l0.8-0.2L867.3,625.6z"/>
	<path class="st0" d="M860.3,390.4l-3.5-5.3l-3.9-3.1l-1.2,0.1l1.2-3.6l-2.9-5.9l-5.7-4.5l-7.2,3.2l-3.1-5.4l4.3-3.8l1.1-8.1l-1-1
		c-0.7-0.7-1.3-1.4-2-2.1c-0.6-0.7-1.3-1.4-1.9-2l-1.1-1.1l-1.9,0.3l1.3-4l-2.9-5.9l-5.7-4.5l-8.8,3.9l3.7,4.8l4,0l-0.1,0.2
		l-2.1,0.3l-10.4-2.4l-4.6,2.5l9.1,15.7l2.4-0.8l-1.1,4.4l6.1,6.4l4.3-0.4l3.8,6.6l-0.1,0l-4.6,2.5l9.1,15.7l1.5-0.5l-0.8,3.6
		l6.1,5.4l7.1,1.1l8.8-5.3L860.3,390.4z M840.9,385.7l1.8,0.8l-0.1,0.1l0,1.7L840.9,385.7z M827.7,358.4l1.6-0.8l-0.8,1l-1.5,0.7
		L827.7,358.4z M821.7,351.6l-0.4,0.3l-0.4-0.7L821.7,351.6z M838.1,375.3l1.2,1.6l4,0l-0.1,0.2l-2.1,0.3l-4.7-1.1L838.1,375.3z"/>
	<path class="st0" d="M677.3,222.1l-5,0.2l-2.2,2l1.5-4.2l-5.1-1.9l-2,0.3l-5.7,0.1l-2,5.4l3.1,1.1l-0.4,1.2l-9.8-3.6l2.5-4.5
		l-2.4-6.1l-6-2.7l-6.9,0.2l0.7-2l-5.1-1.9l-2,0.3l-5.7,0.1l-2,5.5l3.1,1.1l-2.5,7l-3.2-1l-2.2,6l10.5,3.8l0,0l17.1,6.2l2.9-4.6
		l5.3,1.9l-1.8,5l15.1,5.5l0.2-0.6l1.1,2.1l8.2,0.2l6.1-3.8l3.3-9.7l-2.7-6.9L677.3,222.1z M640,218.9l-7.7,3.9l1.5-4.1l4.5,1.1
		l3.1-2.6l0.1,0.2L640,218.9z M645.8,225.3l-0.1,0.3l-0.5-0.2L645.8,225.3z M666.4,235.4l-0.2-0.1l1.2-3.3l0,0.5l2,2.3L666.4,235.4z
		"/>
	<path class="st0" d="M444.3,210.6l-4.8,1.8l-1.8-4.8l-6.9,2.5l1.8,4.8l-1.4,0.5l-3.1-5.1l-7.8-2.5l-1.2,0.8
		c-0.8,0.5-1.6,1.1-2.4,1.6c-0.8,0.5-1.6,1-2.3,1.6l-1.3,0.9l-0.1,2.3l-4.6-2.5l-5.8,2.5l-3.7,3.3l-0.8,6l3.5,5.1l3.1,0.5l-3.4,4.2
		l8.6,3.5l6.4-5.1l1.2-3.5l6.9,3.1l7.3-4.9l0.4-4.2l2.9-1.1l1.8,4.8l6.9-2.5l-1.8-4.8l4.8-1.8L444.3,210.6z M422.5,220.2l-0.5-1.7
		l0.9,1l0.5,1.6L422.5,220.2z"/>
	<path class="st0" d="M257.6,335.3l-7.3,1.5l-2.8,5.6l-0.7,4.9l0.7,1.1l-2.5-0.3l-3.3,3.8l-2.1,6.5l2.8,5.1l3.9,1.4l-3.8,6.7
		l-5.5-1.9l-7.6,3.1l-0.4,1.4c-0.3,0.9-0.5,1.8-0.8,2.7c-0.3,0.9-0.5,1.8-0.8,2.7l-0.5,1.5l1.4,1.8l-3.1-0.3l-3.3,3.8l-2.1,6.5
		l2.8,5.1l5.2,1.9l2.2,3.6l6.2,0.7l5.7-5.1l0.6-6.9l-0.9-1.8l6.5-1.8l2.5-8.4l-2.5-3.6l4.2-7.3l3.7,0.4l5.7-5.1l0.6-6.9l-0.4-0.9
		l5.8-1.9l1.6-8l-2.6-6.7L257.6,335.3z M238.8,380.1l1.4,0.9l-1.2-0.2l-1.5-1L238.8,380.1z"/>
	<path class="st0" d="M223.4,615l1-1.4l-2.7-15.1l-9.1,1.6l1.3,7.2l-2.8-0.9l-3-1.2l4.5-0.8l-1.7-9.9l5.4-2.1l3.8-7.2l-0.6-1.3
		c-0.4-0.9-0.8-1.8-1.1-2.6c-0.4-0.9-0.8-1.7-1.1-2.6l-0.2-0.4l0.9-1.3l-2.7-15.1l-9.1,1.6l1.3,7.2l-2.8-0.9l-11.9-4.8l1.8,10l8.9,2
		l-3.3,1.3l-4.6,6.7l3.5,8l4.2,1.1l1.7,9.7l-5.8-2.3l1.8,10l10.6,2.4l-0.4,0.2l-1,2.9l-3.5-4.1l-4.9,7.9l3.9,7.2l6.3,3.4l10.1-2
		l4.6-5.8l-1.5-6.1L223.4,615z M206.3,585.8l1-0.6l1.8-0.2l-1.1,0.7L206.3,585.8z"/>
	<path class="st0" d="M352.5,803.5l-4.3-1.4l-4.4-6.6l-5.3-2.5l-5.7,0.8l-4.1,2.9l-5.4-4.5l2.8-5.1l-1.7-8l-1.3-0.6
		c-0.9-0.4-1.7-0.9-2.6-1.3c-0.8-0.4-1.7-0.8-2.5-1.3l-1.4-0.7l-0.3,0.2l-4.4-6.5l-5.3-2.5l-5.7,0.8l-5.8,4.1l-2.7,6.3l1.1,6.8
		l4.4,3.4l5.5,0.9l1.4-0.6l0.7,6.8l7.9,3.9l3.9-1.8l7.4,6.2l-0.5,1.1l1.1,6.8l4.4,3.4l5.5,0.9l0.5-0.2l0.9,6.1l7.6,3l7-1.4l6.4-8
		l-0.2-7.4L352.5,803.5z M301.7,780.1l0.1-0.9l0,0l0.2,0l0.1,0.5L301.7,780.1z M314.3,788.4l0.4-1.1l1.2-1.3l-0.4,1.2L314.3,788.4z
		 M333.5,806.8l0.1-0.9l0,0l0.2,0l0.1,0.5L333.5,806.8z"/>
</g>
<g>
	<polygon class="st1" points="513.3,870.9 508.3,871.9 508.9,868.3 517,868.3 517,865 508.6,865 507.1,873.8 507.6,873.8 
		509.8,872.5 512.5,872.3 514.6,875.3 514.8,879.4 513.4,880.9 509.1,880.8 507.2,877.7 506.6,877.7 506.3,880.8 512.2,882.1 
		516.9,880.2 518.4,876.7 517.5,873.1 	"/>
	<path class="st1" d="M527.9,864.6c-1.8,0.4-3.7,0.9-5.5,1.3l-2.5,6.3l1.3,6l4,3.9l5.5-1.3l3-6.3l-1.3-6.5L527.9,864.6z
		 M529.6,879.5l-1.7,1.1l-2.1-0.4l-2.3-5.7l0.3-7l1.8-1.2l2,0.2l2.5,6.3L529.6,879.5z"/>
	<rect x="535.6" y="875.1" class="st1" width="7.7" height="1.4"/>
	<polygon class="st1" points="552.4,870.9 547.4,871.9 548,868.3 556.1,868.3 556.1,865 547.7,865 546.2,873.8 546.7,873.8 
		549,872.5 551.6,872.3 553.7,875.3 553.9,879.4 552.6,880.9 548.2,880.8 546.3,877.7 545.7,877.7 545.4,880.8 551.3,882.1 
		556,880.2 557.5,876.7 556.6,873.1 	"/>
	<path class="st1" d="M568.4,864.7l-4.3,0.3l-3.1,1.2l-1.8,3.4l1,3.6l4.2,2.3l4.3-1.9v4.5l-2.9,2.9l-4.2-1.5l-0.8,0.5l2.6,2.3
		l5.3-1.8l3.2-4.1l-0.2-8.1L568.4,864.7z M568.7,872.8l-3.6,1.3l-2.3-2.9l-0.1-3.2l0.9-2l3.3,0.6l1.8,4.1V872.8z"/>
	<path class="st1" d="M742.8,815.2l-2,0.1l-2-2.4l2.6-2.2l-0.6-0.7l-2.6,2.2l-7.2-8.6l-1.8,1.5l1.1,13.7l0.6,0.7l5.4-4.6l2,2.4
		l-0.5,1.9l-1,1l0.3,0.4l7.2-6l-0.3-0.4L742.8,815.2z M731.8,817.6l-0.8-1l-0.7-8.7l5.4,6.4L731.8,817.6z"/>
	<path class="st1" d="M745.7,795.3l-5.6,0.2c-1.1,1.5-2.2,3-3.4,4.6l2.1,6.4l4.9,3.8l5.6,0.4l3.4-4.6l-1.8-6.7L745.7,795.3z
		 M750.3,807.7l-1.9,1.1l-5.5-2.9l-4.3-5.6l0.7-2.1l1.7-1.1l6,3.2l3.9,5.4L750.3,807.7z"/>
	
		<rect x="752.2" y="796" transform="matrix(0.7661 -0.6427 0.6427 0.7661 -335.2006 672.2734)" class="st1" width="7.7" height="1.4"/>
	<path class="st1" d="M773.3,789.6l-2,0.1l-2-2.4l2.6-2.2l-0.6-0.7l-2.6,2.2l-7.2-8.6l-1.8,1.5l1.1,13.7l0.6,0.7l5.4-4.6l2,2.4
		l-0.5,1.9l-1,0.9l0.3,0.4l7.2-6l-0.3-0.4L773.3,789.6z M762.3,791.9l-0.8-1l-0.7-8.7l5.4,6.4L762.3,791.9z"/>
	<path class="st1" d="M776.6,769.8l-4.8-0.7l-3.2,3l-1.6,3l0.8,3.7l3.1,2.1l4.7-0.9l2.1-4.3l2.9,3.5l-0.4,4.1l-4.2,1.6l-0.3,0.9
		l3.5,0.1l2.9-4.7l-0.1-5.2L776.6,769.8z M775.2,778.4l-3.6-0.8l-2.2-2.4l-0.6-2.1l2.9-1.7l4,2l1.4,1.7L775.2,778.4z"/>
	<polygon class="st1" points="869,618 865.5,618.8 863.6,623.3 862.9,618.8 860,617.1 856.9,618.5 855.4,622.8 855.6,627.7 
		860,628.9 860,628.1 856.1,624.7 857.9,621.2 860.8,621.2 863,624.3 862.6,626.5 863.4,626.6 863.7,625.1 865.8,622.8 869.3,622 
		871.4,623.9 871.4,627.5 866.6,629 866.4,629.9 870.4,630.3 872.8,626.4 872.5,621.3 	"/>
	<path class="st1" d="M869.1,602.3l-6.6,0.1l-4.2,3.8c0.1,1.9,0.2,3.8,0.3,5.7l5.8,3.6l6.2-0.3l4.5-3.2l-0.4-5.7L869.1,602.3z
		 M873.2,611.1l-6,1.3l-6.9-1.5l-0.8-2l0.6-1.9l6.7-1.4l6.4,1.6l0.7,1.8L873.2,611.1z"/>
	
		<rect x="867.5" y="596.2" transform="matrix(0.1737 -0.9848 0.9848 0.1737 132.1165 1351.2559)" class="st1" width="7.7" height="1.4"/>
	<polygon class="st1" points="876,578.8 872.4,579.6 870.6,584.1 869.8,579.5 866.9,577.9 863.8,579.2 862.3,583.6 862.5,588.4 
		866.9,589.6 866.9,588.8 863.1,585.5 864.8,582 867.7,581.9 869.9,585.1 869.5,587.2 870.3,587.4 870.6,585.8 872.7,583.6 
		876.2,582.8 878.3,584.7 878.3,588.3 873.5,589.8 873.3,590.7 877.3,591.1 879.7,587.2 879.4,582.1 	"/>
	<path class="st1" d="M868.8,575.6l3.7-0.3l3-3.7l-1.2-4.6l4.5,0.8l2.3,3.4l-2.2,3.9l0.3,0.9l2.7-2.1l-0.8-5.5l-3.5-3.9l-8-1.2
		l-4.2,2.5l-0.5,4.3l0.7,3.3L868.8,575.6z M867,567.5l4.4-1.1l2.2,0.4l0.6,3.8l-3.3,1.8l-3.2-0.4l-1.8-1.2L867,567.5z"/>
	<polygon class="st1" points="814.1,344.8 824.5,349.6 828.6,348 829.8,344.3 827.8,340.1 824.1,337.1 820.4,338.8 820.9,339.4 
		825.8,339.4 826.7,342.4 825.4,345.4 821,345.9 811.2,343.6 810.3,344.1 816.7,355.1 819.3,354.2 813.2,344.7 	"/>
	<path class="st1" d="M835.7,360.6l0.8-5.6c-1.3-1.4-2.6-2.7-3.9-4.1l-6.7,1l-4.6,4.2l-1.4,5.4l3.9,4.1l6.9-0.6L835.7,360.6z
		 M824.5,363.9l-1.8-0.9l-0.7-2l3.8-4.9l6.2-3.3l1.9,1l0.8,1.8l-4.2,5.4L824.5,363.9z"/>
	
		<rect x="831.8" y="366.7" transform="matrix(0.866 -0.5001 0.5001 0.866 -73.739 466.0007)" class="st1" width="1.4" height="7.7"/>
	<polygon class="st1" points="834,379.3 844.4,384.1 848.5,382.5 849.8,378.8 847.7,374.6 844,371.6 840.3,373.3 840.8,373.9 
		845.7,373.9 846.6,376.9 845.3,379.9 840.9,380.4 831.1,378.1 830.2,378.6 836.6,389.6 839.2,388.7 833.2,379.2 	"/>
	<path class="st1" d="M857,390.8l-2.4-3.6l-2.6-2.1l-3.8,0.2l-2.6,2.6l0.1,4.7l3.9,2.8l-3.9,2.3l-3.9-1.1l-0.8-4.4l-0.8-0.5
		l-0.7,3.4l4.1,3.7l5.2,0.8l6.9-4.2L857,390.8z M852,394l-1.9,1.1l-2.9-2.5l1.4-3.5l2.7-1.7l2.2-0.2l1.2,3.2L852,394z"/>
	<polygon class="st1" points="628.8,223.6 633.9,209.5 632.3,208.9 630.8,209.1 627,209.2 626.7,209.9 626.9,210 630.3,209.9 
		625.7,222.5 623.6,223 622.1,222.5 621.9,223 631.4,226.4 631.5,226 630,225.3 	"/>
	<polygon class="st1" points="646.8,221.9 649,218.1 647.5,214.5 643.3,212.5 638.5,212.7 636.8,216.3 637.5,216.5 641.3,213.3 
		643.9,215 644.8,218.2 641.8,221.4 632.8,225.9 632.4,226.9 644.4,231.2 645.8,228.9 635.1,225.4 635.8,225 	"/>
	
		<rect x="651.5" y="223.8" transform="matrix(0.3417 -0.9398 0.9398 0.3417 215.3724 762.7859)" class="st1" width="1.4" height="7.7"/>
	<polygon class="st1" points="666.3,221.3 664.8,221.5 660.9,221.6 660.7,222.3 660.9,222.3 664.2,222.2 659.7,234.8 657.6,235.4 
		656,234.9 655.9,235.4 665.3,238.8 665.5,238.3 663.9,237.7 662.8,236 667.9,221.9 	"/>
	<path class="st1" d="M676.9,225.2l-3.4,0.1l-2.8,2.6l-0.3,3.7l3.1,3.6l4.7-0.3l-1.6,4.3l-3.7,1.7l-3.5-2.9l-0.9,0.2l1.6,3.1
		l5.5,0.2l4.4-2.7l2.6-7.7l-1.8-4.5L676.9,225.2z M678.6,234.1l-3.8,0l-1.2-3.5l1-3.1l1.5-1.6l2.9,1.7l0.3,4.5L678.6,234.1z"/>
	<path class="st1" d="M408.2,215.7l-4,1.7l-2.5,2.2l-0.5,3.8l2.1,3.1l4.7,0.7l3.4-3.3l1.6,4.3l-1.7,3.7l-4.5,0l-0.6,0.7l3.2,1.3
		l4.3-3.4l1.6-4.9l-2.9-7.5L408.2,215.7z M408.3,225.6l-3.2-2l-1.2-3l0.2-2.2l3.3-0.6l3.1,3.2l0.7,2.1L408.3,225.6z"/>
	<path class="st1" d="M420.7,211c-1.6,1-3.1,2.1-4.7,3.1l-0.2,6.8l3.3,5.2l5.1,2.3l4.7-3.2l0.6-6.9l-3.4-5.7L420.7,211z
		 M426.2,225.9l-2.1,0.4l-4.1-4.6l-2.1-6.7l1.3-1.7l1.9-0.4l4.5,5.1l1.8,6.4L426.2,225.9z"/>
	<polygon class="st1" points="442.5,214.4 437.7,216.2 435.9,211.4 434.6,211.8 436.4,216.6 431.6,218.4 432,219.7 436.9,217.9 
		438.6,222.8 439.9,222.3 438.1,217.5 443,215.7 	"/>
	<path class="st1" d="M234.2,388.7l-3.3,2.3l0.5-1.9l-1.3-3l-3.7-0.4l-1.9,2.1l-1.5,4.6l1.6,2.9l3,1.1l2.5-1.7l0,3l1.6,2.7l3.4,0.4
		l3.8-3.4l0.4-4.9l-1.7-3.6L234.2,388.7z M228.2,392.9l-2.1-0.1l-2-1.9l0.6-2.3l1.4-0.8l2.9,1.1l0.7,2.8L228.2,392.9z M238.4,396
		l-3.2,1.8l-2.9-0.7l-1.3-2.8l2.1-1.4l3.6-0.1l1.5,1.4L238.4,396z"/>
	<path class="st1" d="M236.9,372.9l-5.2,2.1c-0.5,1.8-1.1,3.6-1.6,5.4l4.2,5.3l5.9,1.9l5.4-1.5l1.6-5.5l-3.9-5.7L236.9,372.9z
		 M245.5,383l-1.4,1.7l-6.1-0.8L232,380l-0.1-2.2l1.2-1.6l6.7,1l5.5,3.7L245.5,383z"/>
	
		<rect x="243.3" y="369.9" transform="matrix(0.5001 -0.866 0.866 0.5001 -197.437 399.3038)" class="st1" width="7.7" height="1.4"/>
	<path class="st1" d="M254,354.3l-3.3,2.3l0.5-1.9l-1.3-3l-3.7-0.4l-1.9,2.1l-1.5,4.6l1.6,2.9l3,1.1l2.5-1.7l0,3l1.6,2.7l3.4,0.4
		l3.8-3.4l0.4-4.9l-1.7-3.6L254,354.3z M248.1,358.5l-2.1-0.1l-2-1.9l0.6-2.3l1.4-0.8l2.9,1.1l0.7,2.8L248.1,358.5z M258.3,361.6
		l-3.2,1.8l-2.9-0.7l-1.3-2.8l2.1-1.4l3.6-0.1l1.5,1.4L258.3,361.6z"/>
	<path class="st1" d="M257.1,338.5l-4.8,1l-1.9,3.9l-0.5,3.3l2.1,3.2l3.6,1l4.1-2.4l0.5-4.7l3.9,2.3l1,4l-3.4,2.9l0,0.9l3.3-1.1
		l1.1-5.4l-1.9-4.8L257.1,338.5z M258.8,347.1l-3.7,0.5l-2.9-1.5l-1.3-1.8l2.2-2.6l4.5,0.5l1.9,1.1L258.8,347.1z"/>
	<polygon class="st1" points="214.8,576.2 212.8,565.3 209.6,565.8 211.2,574.9 203.6,572.5 196.5,569.7 197,572.5 214.6,576.5 	"/>
	<path class="st1" d="M214,590l2.6-5c-0.7-1.7-1.5-3.5-2.3-5.2l-6.6-1.4l-5.7,2.3l-3.2,4.6l2.3,5.2l6.7,1.8L214,590z M201,587.8
		l0-2.2l5.2-3.3l7-0.9l1.5,1.6l0.1,2l-5.8,3.6l-6.6,0.7L201,587.8z"/>
	
		<rect x="207" y="594.4" transform="matrix(0.9848 -0.1737 0.1737 0.9848 -100.7369 45.1549)" class="st1" width="1.4" height="7.7"/>
	<polygon class="st1" points="221.2,612.9 219.3,601.9 216.1,602.5 217.7,611.6 210,609.2 203,606.4 203.5,609.1 221,613.1 	"/>
	<path class="st1" d="M220.5,616l-3.6-1.1l-3.4,1.6l-1.5,4.5l2.7,3.9l-4.5,0.8l-3.3-2.4l0.8-4.4l-0.6-0.7l-1.8,3l2.6,4.9l4.6,2.5
		l7.9-1.6l3-3.8l-1-4.2L220.5,616z M217.5,624.3l-2.2,0.4l-1.9-3.3l2.5-2.8l3.2-0.7l2.1,0.6l0,3.4L217.5,624.3z"/>
	<path class="st1" d="M306.2,776.4l-5.2-1.3l-0.2,0.2l1.5-2.2l2.8-1.9l3.1,0l2,1.9l0.1,1.9l-0.5,2.1l0.4,0.3l2.5-2.1l-2.8-4.1
		l-3.8-1.8l-4.1,0.6l-4.5,3.2l-2,4.7l0.8,4.8l2.9,2.2l3.9,0.7l3.6-1.6l1.6-3.4L306.2,776.4z M302.9,783.3l-2.1,0.9l-2.4-2.2l0.5-3.9
		l1.7-2.4l4.1,1.3l0.4,3.7L302.9,783.3z"/>
	<path class="st1" d="M321.7,781.1c-1.7-0.9-3.4-1.7-5.1-2.5l-6,3.2l-2.9,5.5l0.5,5.6l5.1,2.5l6.3-2.9l3.2-5.8L321.7,781.1z
		 M318.1,788.8l-4.6,4.8l-2-0.3l-1.4-1.7l1.9-5.9l4.7-5.2l2.2,0.3l1.4,1.4L318.1,788.8z"/>
	
		<rect x="322.7" y="793.2" transform="matrix(0.6428 -0.766 0.766 0.6428 -495.0386 532.4069)" class="st1" width="1.4" height="7.7"/>
	<path class="st1" d="M338,803.1l-5.2-1.3l-0.2,0.2l1.5-2.2l2.8-1.9l3.1,0l2,1.9l0.1,1.9l-0.5,2.1l0.4,0.3l2.5-2.1l-2.8-4.1
		l-3.8-1.8l-4.1,0.6l-4.5,3.2l-2,4.7l0.8,4.8l2.9,2.2l3.9,0.7l3.6-1.6l1.6-3.4L338,803.1z M334.7,810l-2.1,0.9l-2.4-2.2l0.5-3.9
		l1.7-2.4l4.1,1.3l0.4,3.7L334.7,810z"/>
	<path class="st1" d="M351.1,806.2l-3.2-1l-3.5,1.5l-1.6,3.4l1.7,4.4l4.6,1.3l-2.9,3.5l-4.1,0.3l-2.3-3.9l-0.9-0.2l0.5,3.5l5.2,2
		l5.1-1l5.1-6.3l-0.1-4.9L351.1,806.2z M351,813.4l-1.4,1.7l-3.6-1.3l0.1-3.7l2-2.6l2-0.9l2.2,2.6L351,813.4z"/>
</g>
</svg>
