<?xml version="1.0" encoding="utf-8"?>
<!-- Generator: Adobe Illustrator 25.1.0, SVG Export Plug-In . SVG Version: 6.00 Build 0)  -->
<svg version="1.1" id="Layer_1" xmlns="http://www.w3.org/2000/svg" xmlns:xlink="http://www.w3.org/1999/xlink" x="0px" y="0px"
	 width="1080px" height="1080px" viewBox="0 0 1080 1080" style="enable-background:new 0 0 1080 1080;" xml:space="preserve">
<style type="text/css">
	.st0{fill:#333333;}
	.st1{fill:#FDF6F0;}
</style>
<g>
	<path class="st0" d="M505.5,883.1l0.7-5.7h2.7l1.9,3.1l2.9,0l0.5-0.5l-0.1-3l-1.3-2l-1.5,0.1l-2.3,1.3h-2.7l2.1-11.8h11.1v6.3h-4
		l4.3,2.3l1.3,4.7l-2,4.5l-5.7,2.4L505.5,883.1z M511,871.1l0.9-0.2H511L511,871.1z"/>
	<path class="st1" d="M517.8,866.1v3.3h-8.1l-0.6,3.6l5-1l4.2,2.2l1,3.6l-1.5,3.5l-4.7,2l-5.9-1.3l0.4-3.1h0.6l1.9,3.1l4.4,0.1
		l1.3-1.5l-0.1-4.1l-2.1-3.1l-2.7,0.2l-2.2,1.2h-0.6l1.5-8.8H517.8 M520.8,863.1h-3h-8.4h-2.5l-0.4,2.5l-1.5,8.8l-0.6,3.5h0.2
		l-0.1,0.6l-0.4,3.1l-0.3,2.7l2.6,0.6l5.9,1.3l0.9,0.2l0.9-0.4l4.7-2l1.1-0.5l0.5-1.1l1.5-3.5l0.4-1l-0.3-1l-1-3.6l-0.3-1.3l0,0
		v-2.7v-3.3V863.1L520.8,863.1z M511.6,876.6l0.3,0l0.6,0.9l0.1,1.5l-0.9,0l-1-1.7l-0.1-0.1L511.6,876.6L511.6,876.6z"/>
</g>
<g>
	<path class="st0" d="M520.7,880.1l-1.5-6.9l3-7.4l0.8-0.2c0.9-0.2,1.9-0.4,2.8-0.7c0.9-0.2,1.8-0.4,2.7-0.7l0.7-0.2l5.4,4.2
		l1.5,7.5l-3.5,7.4l-7,1.7L520.7,880.1z M528.4,880l0.5-0.3l0.4-5.5l-2.1-5.2l-0.6-0.1l-0.7,0.5l-0.2,5.9l1.9,4.6L528.4,880z"/>
	<path class="st1" d="M528.8,865.7l4.4,3.4l1.3,6.5l-3,6.3l-5.5,1.3l-4-3.9l-1.3-6l2.5-6.3C525.1,866.6,526.9,866.2,528.8,865.7
		 M528.8,881.6l1.7-1.1l0.5-6.6l-2.5-6.3l-2-0.2l-1.8,1.2l-0.3,7l2.3,5.7L528.8,881.6 M529.5,862.5l-1.4,0.3
		c-0.9,0.2-1.8,0.4-2.7,0.7c-0.9,0.2-1.9,0.4-2.8,0.7l-1.5,0.4l-0.6,1.5l-2.5,6.3l-0.3,0.9l0.2,0.9l1.3,6l0.2,0.9l0.6,0.6l4,3.9
		l1.2,1.2l1.6-0.4l5.5-1.3l1.4-0.3l0.6-1.3l3-6.3l0.4-0.9l-0.2-1l-1.3-6.5l-0.2-1.1l-0.9-0.7l-4.4-3.4L529.5,862.5L529.5,862.5z
		 M527.3,875l0.1-1.8l0.5,1.2l-0.1,1.7L527.3,875L527.3,875z"/>
</g>
<g>
	<rect x="534.9" y="874.7" class="st0" width="10.7" height="4.4"/>
	<path class="st1" d="M544.1,876.2v1.4h-7.7v-1.4H544.1 M547.1,873.2h-3h-7.7h-3v3v1.4v3h3h7.7h3v-3v-1.4V873.2L547.1,873.2z"/>
</g>
<g>
	<path class="st0" d="M544.6,883.1l0.7-5.7h2.7l1.9,3.1l2.9,0l0.5-0.5l-0.1-3l-1.3-2l-1.5,0.1l-2.3,1.3h-2.7l2.1-11.8h11.1v6.3h-4
		l4.3,2.3l1.3,4.7l-2,4.5l-5.7,2.4L544.6,883.1z M550.1,871.1l0.9-0.2h-0.9L550.1,871.1z"/>
	<path class="st1" d="M557,866.1v3.3h-8.1l-0.6,3.6l5-1l4.2,2.2l1,3.6l-1.5,3.5l-4.7,2l-5.9-1.3l0.4-3.1h0.6l1.9,3.1l4.4,0.1
		l1.3-1.5l-0.1-4.1l-2.1-3.1l-2.7,0.2l-2.2,1.2H547l1.5-8.8H557 M560,863.1h-3h-8.4h-2.5l-0.4,2.5l-1.5,8.8l-0.6,3.5h0.2l-0.1,0.6
		l-0.4,3.1l-0.3,2.7l2.6,0.6l5.9,1.3l0.9,0.2l0.9-0.4l4.7-2l1.1-0.5l0.5-1.1l1.5-3.5l0.4-1l-0.3-1l-1-3.6l-0.3-1.3l0,0v-2.7v-3.3
		V863.1L560,863.1z M550.7,876.6l0.3,0l0.6,0.9l0.1,1.5l-0.9,0l-1-1.7l-0.1-0.1L550.7,876.6L550.7,876.6z"/>
</g>
<g>
	<path class="st0" d="M559.1,880.8l3.2-1.9l4,1.4l1.8-1.8V877l-2.9,1.3l-5.4-3l-1.3-4.8l2.3-4.4l3.9-1.5l5.3-0.3l4.1,4.6l0.2,9.2
		l-3.9,4.9l-6.5,2.2L559.1,880.8z M566.4,873.4l1.6-0.6V872l-1.4-3.1l-1.4-0.2l-0.3,0.6l0.1,2.4L566.4,873.4z"/>
	<path class="st1" d="M569.3,865.8l3.2,3.6l0.2,8.1l-3.2,4.1l-5.3,1.8l-2.6-2.3l0.8-0.5l4.2,1.5l2.9-2.9v-4.5l-4.3,1.9l-4.2-2.3
		l-1-3.6l1.8-3.4l3.1-1.2L569.3,865.8 M565.9,875.2l3.6-1.3v-2.2l-1.8-4.1l-3.3-0.6l-0.9,2l0.1,3.2L565.9,875.2 M570.6,862.7
		l-1.5,0.1l-4.3,0.3l-0.5,0l-0.4,0.2l-3.1,1.2l-1,0.4l-0.5,1l-1.8,3.4l-0.5,1l0.3,1.1l1,3.6l0.3,1.2l1.1,0.6l1.6,0.9l-0.3,0.2
		l-0.8,0.5l-3.5,2.1l3,2.7l2.6,2.3l1.3,1.2l1.7-0.6l5.3-1.8l0.8-0.3l0.6-0.7l3.2-4.1l0.7-0.8l0-1.1l-0.2-8.1l0-1.1l-0.7-0.8
		l-3.2-3.6L570.6,862.7L570.6,862.7z"/>
</g>
<g>
	<path class="st0" d="M300,787.8l-3.7-2.8l-0.9-5.8l2.4-5.5l5.2-3.6l4.9-0.7l4.5,2.2l3.7,5.5l-4.5,3.8l-1.4-1.1l1.1,2.3l-2.2,4.6
		l-4.5,2L300,787.8z M302.4,784l0.9-0.4l1.6-1.9l-0.2-2.1l-2.1-0.7l-0.8,1.2l-0.4,2.8L302.4,784z M308.6,776.7l0.9,1.8l0.6-2.2
		l-0.1-1.1l-1.1-1.1l-2,0l-2.2,1.5L308.6,776.7z"/>
	<path class="st1" d="M307.5,771l3.8,1.8l2.8,4.1l-2.5,2.1l-0.4-0.3l0.5-2.1l-0.1-1.9l-2-1.9l-3.1,0l-2.8,1.9l-1.5,2.2l0.2-0.2
		l5.2,1.3l2,4.1l-1.6,3.4l-3.6,1.6l-3.9-0.7l-2.9-2.2l-0.8-4.8l2-4.7l4.5-3.2L307.5,771 M302.1,785.8l2.1-0.9l2.2-2.6l-0.4-3.7
		l-4.1-1.3l-1.7,2.4l-0.5,3.9L302.1,785.8 M308,767.9l-0.9,0.1l-4.1,0.6l-0.7,0.1l-0.6,0.4l-4.5,3.2l-0.7,0.5l-0.3,0.8l-2,4.7
		l-0.3,0.8l0.1,0.9l0.8,4.8l0.2,1.2l0.9,0.7l2.9,2.2l0.6,0.4l0.7,0.1l3.9,0.7l0.9,0.2l0.8-0.4l3.6-1.6l1-0.5l0.5-1l1.6-3.4l0.6-1.3
		l-0.1-0.3l0.6-0.5l2.5-2.1l2.1-1.7l-1.5-2.2l-2.8-4.1l-0.5-0.7l-0.7-0.4l-3.8-1.8L308,767.9L308,767.9z M303.2,780.8L303.2,780.8
		l0.2,0l0.1,0.5l-0.3,0.4L303.2,780.8L303.2,780.8z"/>
</g>
<g>
	<path class="st0" d="M308.3,795.4l-0.7-6.8l3.3-6.3l7.1-3.8l0.7,0.4c0.9,0.4,1.7,0.9,2.6,1.3c0.8,0.4,1.7,0.8,2.5,1.2l0.6,0.3
		l1.5,6.7l-3.7,6.7l-7.4,3.4L308.3,795.4z M314.3,793.6l3.9-4l1.8-5.3l-0.4-0.4l-0.8-0.1l-4,4.4l-1.5,4.8l0.5,0.6L314.3,793.6z"/>
	<path class="st1" d="M318,780.2c1.7,0.9,3.4,1.7,5.1,2.5l1.2,5.5l-3.2,5.8l-6.3,2.9l-5.1-2.5l-0.5-5.6l2.9-5.5L318,780.2
		 M314.9,795.1l4.6-4.8l2.1-6.5l-1.4-1.4l-2.2-0.3l-4.7,5.2l-1.9,5.9l1.4,1.7L314.9,795.1 M318,776.8l-1.4,0.7l-6,3.2l-0.8,0.4
		l-0.4,0.8l-2.9,5.5l-0.4,0.8l0.1,0.9l0.5,5.6l0.2,1.7l1.5,0.7l5.1,2.5l1.3,0.6l1.3-0.6l6.3-2.9l0.9-0.4l0.5-0.9l3.2-5.8l0.5-1
		l-0.2-1.1l-1.2-5.5l-0.3-1.4l-1.3-0.6c-0.8-0.4-1.7-0.8-2.5-1.2c-0.9-0.4-1.7-0.9-2.6-1.3L318,776.8L318,776.8z M316.1,788.9
		l1.2-1.3l-0.4,1.2l-1.2,1.2L316.1,788.9L316.1,788.9z"/>
</g>
<g>
	
		<rect x="322.5" y="793.3" transform="matrix(0.6429 -0.7659 0.7659 0.6429 -495.7238 533.8816)" class="st0" width="4.4" height="10.7"/>
	<path class="st1" d="M322.3,795.6l5.9,4.9l-0.9,1.1l-5.9-4.9L322.3,795.6 M321.9,791.4l-1.9,2.3l-0.9,1.1l-1.9,2.3l2.3,1.9l5.9,4.9
		l2.3,1.9l1.9-2.3l0.9-1.1l1.9-2.3l-2.3-1.9l-5.9-4.9L321.9,791.4L321.9,791.4z"/>
</g>
<g>
	<path class="st0" d="M331.8,814.5l-3.7-2.8l-0.9-5.8l2.4-5.5l5.2-3.6l4.9-0.7l4.5,2.2l3.7,5.5l-4.5,3.8l-1.4-1.1l1.1,2.3l-2.2,4.6
		l-4.5,2L331.8,814.5z M334.3,810.7l0.9-0.4l1.6-1.9l-0.2-2.1l-2.1-0.7l-0.8,1.2l-0.4,2.8L334.3,810.7z M340.5,803.4l0.9,1.8
		l0.6-2.2l-0.1-1.1l-1.1-1.1l-2,0l-2.2,1.5L340.5,803.4z"/>
	<path class="st1" d="M339.3,797.7l3.8,1.8l2.8,4.1l-2.5,2.1l-0.4-0.3l0.5-2.1l-0.1-1.9l-2-1.9l-3.1,0l-2.8,1.9l-1.5,2.2l0.2-0.2
		l5.2,1.3l2,4.1l-1.6,3.4l-3.6,1.6l-3.9-0.7l-2.9-2.2l-0.8-4.8l2-4.7l4.5-3.2L339.3,797.7 M334,812.5l2.1-0.9l2.2-2.6l-0.4-3.7
		l-4.1-1.3l-1.7,2.4l-0.5,3.9L334,812.5 M339.8,794.6l-0.9,0.1l-4.1,0.6l-0.7,0.1l-0.6,0.4L329,799l-0.7,0.5l-0.3,0.8l-2,4.7
		l-0.3,0.8l0.1,0.9l0.8,4.8l0.2,1.2l0.9,0.7l2.9,2.2l0.6,0.4l0.7,0.1l3.9,0.7l0.9,0.2l0.8-0.4l3.6-1.6l1-0.5l0.5-1l1.6-3.4l0.6-1.3
		l-0.1-0.3l0.6-0.5l2.5-2.1l2.1-1.7l-1.5-2.2l-2.8-4.1l-0.5-0.7l-0.7-0.4l-3.8-1.8L339.8,794.6L339.8,794.6z M335,807.5L335,807.5
		l0.2,0l0.1,0.5l-0.3,0.4L335,807.5L335,807.5z"/>
</g>
<g>
	<path class="st0" d="M339.4,821.6l-0.9-6.3l3.6,0.6l2.1,3.7l2.5-0.2l1-1.2l-3.1-0.9l-2.2-5.7l2.1-4.5l4.6-1.9l4,1.3l4.3,3.2
		l0.2,6.1l-5.8,7.2l-6.1,1.2L339.4,821.6z M350.5,814.9l0.5-0.6l0.9-3.2L351,810l-0.6,0.3l-1.5,1.9l-0.1,2.2L350.5,814.9z"/>
	<path class="st1" d="M349.3,806.7l3.2,1l3.5,2.6l0.1,4.9l-5.1,6.3l-5.1,1l-5.2-2l-0.5-3.5l0.9,0.2l2.3,3.9l4.1-0.3l2.9-3.5
		l-4.6-1.3l-1.7-4.4l1.6-3.4L349.3,806.7 M351,816.7l1.4-1.7l1.2-4.3l-2.2-2.6l-2,0.9l-2,2.6l-0.1,3.7L351,816.7 M349.2,803.5
		l-1,0.4l-3.5,1.5l-1.1,0.4l-0.5,1.1l-1.6,3.4l-0.5,1.2l0.5,1.2l0.7,1.7l-0.3-0.1l-0.9-0.2l-4-0.7l0.6,4.1l0.5,3.5l0.2,1.7l1.6,0.6
		l5.2,2l0.8,0.3l0.9-0.2l5.1-1l1.1-0.2l0.7-0.8l5.1-6.3l0.7-0.9l0-1.1l-0.1-4.9l0-1.5l-1.2-0.9l-3.5-2.6l-0.4-0.3l-0.5-0.2l-3.2-1
		L349.2,803.5L349.2,803.5z"/>
</g>
<g>
	<polygon class="st0" points="198,575.6 196.9,569.2 206.4,573 211.6,574.7 210.2,566.5 216.3,565.4 218.6,578.5 217.5,580.1 	"/>
	<path class="st1" d="M215.1,567.2l1.9,10.9l-0.2,0.3l-17.5-4l-0.5-2.8l7,2.8l7.6,2.4l-1.6-9.1L215.1,567.2 M217.6,563.7l-3,0.5
		l-3.2,0.6l-3,0.5l0.5,3l0.7,4.2l-2.8-0.9l-6.9-2.8l-5-2l0.9,5.3l0.5,2.8l0.3,2l1.9,0.4l17.5,4l2,0.5l1.2-1.7l0.2-0.3l0.7-1
		l-0.2-1.2l-1.9-10.9L217.6,563.7L217.6,563.7z"/>
</g>
<g>
	<path class="st0" d="M202.4,593.7l-2.9-6.6l3.9-5.7l6.5-2.7l7.8,1.6l0.3,0.7c0.4,0.9,0.8,1.8,1.1,2.6c0.4,0.9,0.8,1.7,1.1,2.6
		l0.3,0.7l-3.2,6.1l-7.2,2.8L202.4,593.7z M205.3,589.6l5.5-0.6l4.8-2.9l0-0.6l-0.6-0.6l-5.8,0.8l-4.2,2.7l0,0.8L205.3,589.6z"/>
	<path class="st1" d="M210.1,580.3l6.6,1.4c0.7,1.7,1.5,3.5,2.3,5.2l-2.6,5l-6.2,2.4l-6.7-1.8l-2.3-5.2l3.2-4.6L210.1,580.3
		 M204.7,591.1l6.6-0.7l5.8-3.6l-0.1-2l-1.5-1.6l-7,0.9l-5.2,3.3l0,2.2L204.7,591.1 M209.8,577.2l-0.9,0.4l-5.7,2.3l-0.8,0.3
		l-0.5,0.7l-3.2,4.6l-0.9,1.4l0.7,1.5l2.3,5.2l0.6,1.3l1.4,0.4l6.7,1.8l1,0.3l0.9-0.4l6.2-2.4l1-0.4l0.5-1l2.6-5l0.7-1.3l-0.6-1.3
		c-0.4-0.9-0.7-1.7-1.1-2.6c-0.4-0.9-0.8-1.7-1.1-2.6l-0.6-1.4l-1.5-0.3l-6.6-1.4L209.8,577.2L209.8,577.2z M209.6,587.1l1.8-0.2
		l-1.1,0.7l-1.7,0.2L209.6,587.1L209.6,587.1z"/>
</g>
<g>
	
		<rect x="207.8" y="594.8" transform="matrix(0.9848 -0.1735 0.1735 0.9848 -100.9564 45.5408)" class="st0" width="4.4" height="10.7"/>
	<path class="st1" d="M210,596.3l1.3,7.5l-1.4,0.2l-1.3-7.5L210,596.3 M212.5,592.8l-3,0.5l-1.4,0.2l-3,0.5l0.5,3l1.3,7.5l0.5,3
		l3-0.5l1.4-0.2l3-0.5l-0.5-3l-1.3-7.5L212.5,592.8L212.5,592.8z"/>
</g>
<g>
	<polygon class="st0" points="204.5,612.3 203.4,605.9 212.8,609.7 218.1,611.3 216.6,603.2 222.8,602.1 225.1,615.1 224,616.7 	"/>
	<path class="st1" d="M221.6,603.8l1.9,10.9l-0.2,0.3l-17.5-4l-0.5-2.8l7,2.8l7.6,2.4l-1.6-9.1L221.6,603.8 M224,600.4l-3,0.5
		l-3.2,0.6l-3,0.5l0.5,3l0.7,4.2l-2.8-0.9l-6.9-2.8l-5-2l0.9,5.3l0.5,2.8l0.3,2l1.9,0.4l17.5,4l2,0.5l1.2-1.7l0.2-0.3l0.7-1
		l-0.2-1.2l-1.9-10.9L224,600.4L224,600.4z"/>
</g>
<g>
	<path class="st0" d="M208.9,629l-3.3-6l3.4-5.4l2.4,2.8l-0.7,4.2l2.1,1.5l1.6-0.3l-1.8-2.6l2-5.8l4.5-2.1l4.7,1.5l2.2,3.5l1.2,5.2
		l-3.8,4.8l-9,1.8L208.9,629z M218.5,625l0.8-0.1l2.8-1.9l0-1.4l-0.7-0.2l-2.3,0.5l-1.4,1.6L218.5,625z"/>
	<path class="st1" d="M219.2,616.8l3.6,1.1l1.8,2.9l1,4.2l-3,3.8l-7.9,1.6l-4.6-2.5l-2.6-4.9l1.8-3l0.6,0.7l-0.8,4.4l3.3,2.4
		l4.5-0.8l-2.7-3.9l1.5-4.5L219.2,616.8 M217.7,626.6l2.2-0.4l3.7-2.5l0-3.4l-2.1-0.6l-3.2,0.7l-2.5,2.8L217.7,626.6 M219,613.6
		l-1.1,0.5l-3.4,1.6l-1.2,0.5l-0.4,1.2l-0.6,1.7l-0.2-0.3l-0.6-0.7l-2.7-3.1l-2.2,3.5l-1.8,3l-0.9,1.5l0.8,1.5l2.6,4.9l0.4,0.8
		l0.8,0.4l4.6,2.5l1,0.5l1.1-0.2l7.9-1.6l1.1-0.2l0.7-0.9l3-3.8l0.9-1.1l-0.3-1.4l-1-4.2l-0.1-0.5l-0.3-0.4l-1.8-2.9l-0.6-0.9
		l-1.1-0.3l-3.6-1.1L219,613.6L219,613.6z"/>
</g>
<g>
	<path class="st0" d="M229.4,402.9l-2.2-3.6l0-0.7l-0.8,0.5l-4.3-1.6l-2.2-4l1.8-5.6l2.6-3l5.3,0.6l1.5,3.3l1.3-0.9l4.8,0.7l2.3,4.6
		l-0.5,5.9l-4.8,4.2L229.4,402.9z M233.7,397.1l1.8-1l0-0.2l-0.7-0.6l-2.6,0.1l-0.6,0.4l0.5,1L233.7,397.1z M226.5,392.4l0.3-0.2
		l-0.3-1.1l-1.5-0.6l-0.2,0.1l-0.2,0.8l0.9,0.9L226.5,392.4z"/>
	<path class="st1" d="M225,386.7l3.7,0.4l1.3,3l-0.5,1.9l3.3-2.3l3.4,0.5l1.7,3.6l-0.4,4.9l-3.8,3.4l-3.4-0.4l-1.6-2.7l0-3l-2.5,1.7
		l-3-1.1l-1.6-2.9l1.5-4.6L225,386.7 M226.9,393.9l1.5-1.1l-0.7-2.8l-2.9-1.1l-1.4,0.8l-0.6,2.3l2,1.9L226.9,393.9 M233.9,398.7
		l3.2-1.8l-0.3-1.8l-1.5-1.4l-3.6,0.1l-2.1,1.4l1.3,2.8L233.9,398.7 M223.8,383.5l-1,1.2l-1.9,2.1l-0.4,0.5l-0.2,0.6l-1.5,4.6
		l-0.4,1.2l0.6,1.1l1.6,2.9l0.5,1l1.1,0.4l3,1.1l1.1,0.4l1.4,2.4l0.8,1.2l1.4,0.2l3.4,0.4l1.3,0.2l1-0.9l3.8-3.4l0.9-0.8l0.1-1.2
		l0.4-4.9l0.1-0.8l-0.4-0.7l-1.7-3.6l-0.7-1.4l-1.6-0.2l-3.4-0.5l-1.2-0.2l-0.2,0.2l-0.4-0.8l-0.7-1.6l-1.7-0.2l-3.7-0.4
		L223.8,383.5L223.8,383.5z"/>
</g>
<g>
	<path class="st0" d="M232.1,388l-5-6.3l0.2-0.7c0.3-0.9,0.6-1.9,0.8-2.8c0.3-0.9,0.5-1.8,0.8-2.7l0.2-0.7l6.4-2.6l7.3,2.5l4.6,6.7
		l-2,6.9l-6.6,1.8L232.1,388z M242.1,384l0.5-0.6l0-0.6l-4.6-3.1l-5.5-0.8l-0.3,0.4l0,0.9l5,3.2L242.1,384z"/>
	<path class="st1" d="M235.6,373.8l6.3,2.1l3.9,5.7l-1.6,5.5l-5.4,1.5l-5.9-1.9l-4.2-5.3c0.6-1.8,1.1-3.6,1.6-5.4L235.6,373.8
		 M242.8,385.6l1.4-1.7l-0.1-2l-5.5-3.7l-6.7-1l-1.2,1.6l0.1,2.2l5.9,3.8L242.8,385.6 M235.5,370.6l-1,0.4l-5.2,2.1l-1.3,0.5
		l-0.4,1.4c-0.3,0.9-0.5,1.8-0.8,2.7c-0.3,0.9-0.5,1.8-0.8,2.8l-0.5,1.5l1,1.2l4.2,5.3l0.6,0.7l0.9,0.3l5.9,1.9l0.9,0.3l0.9-0.2
		l5.4-1.5l1.6-0.4l0.5-1.6l1.6-5.5l0.4-1.4l-0.8-1.2l-3.9-5.7l-0.6-0.8l-0.9-0.3l-6.3-2.1L235.5,370.6L235.5,370.6z M237.7,381.8
		l-1.5-1l1.3,0.2l1.4,0.9L237.7,381.8L237.7,381.8z"/>
</g>
<g>
	<rect x="240.5" y="369.4" transform="matrix(0.5 -0.866 0.866 0.5 -198.9115 398.6965)" class="st0" width="10.7" height="4.4"/>
	<path class="st1" d="M247.1,367.9l1.2,0.7l-3.8,6.6l-1.2-0.7L247.1,367.9 M246,363.8l-1.5,2.6l-3.8,6.6l-1.5,2.6l2.6,1.5l1.2,0.7
		l2.6,1.5l1.5-2.6l3.8-6.6l1.5-2.6l-2.6-1.5l-1.2-0.7L246,363.8L246,363.8z"/>
</g>
<g>
	<path class="st0" d="M249.3,368.5l-2.2-3.6l0-0.6l-0.8,0.5l-4.3-1.6l-2.2-4l1.8-5.6l2.6-3l5.3,0.6l1.5,3.3l1.3-0.9l4.8,0.7l2.3,4.6
		l-0.5,5.9l-4.8,4.2L249.3,368.5z M253.5,362.7l1.8-1l0-0.2l-0.7-0.6l-2.6,0.1l-0.6,0.4l0.5,1L253.5,362.7z M246.3,358l0.3-0.2
		l-0.3-1.1l-1.5-0.6l-0.2,0.1l-0.2,0.8l0.9,0.9L246.3,358z"/>
	<path class="st1" d="M244.9,352.3l3.7,0.4l1.3,3l-0.5,1.9l3.3-2.3l3.4,0.5l1.7,3.6l-0.4,4.9l-3.8,3.4l-3.4-0.4l-1.6-2.7l0-3
		l-2.5,1.7l-3-1.1l-1.6-2.9l1.5-4.6L244.9,352.3 M246.8,359.5l1.5-1.1l-0.7-2.8l-2.9-1.1l-1.4,0.8l-0.6,2.3l2,1.9L246.8,359.5
		 M253.8,364.3l3.2-1.8l-0.3-1.8l-1.5-1.4l-3.6,0.1l-2.1,1.4l1.3,2.8L253.8,364.3 M243.7,349.1l-1,1.2l-1.9,2.1l-0.4,0.5l-0.2,0.6
		l-1.5,4.6l-0.4,1.2l0.6,1.1l1.6,2.9l0.5,1l1.1,0.4l3,1.1l1.1,0.4l1.4,2.4l0.8,1.2l1.4,0.2l3.4,0.4l1.3,0.2l1-0.9l3.8-3.4l0.9-0.8
		l0.1-1.2l0.4-4.9l0.1-0.8l-0.4-0.7l-1.7-3.6l-0.7-1.4l-1.6-0.2l-3.4-0.5l-1.2-0.2l-0.2,0.2l-0.4-0.8l-0.7-1.6l-1.7-0.2l-3.7-0.4
		L243.7,349.1L243.7,349.1z"/>
</g>
<g>
	<path class="st0" d="M258.9,353l3.2-2.7l-0.6-2.4l-1.4-0.8l-0.3,3.2l-5.3,3.2l-4.8-1.3l-2.7-4.2l0.6-4.1l2.4-4.8l6-1.2l8,4.4
		l2.3,5.8l-1.4,6.7l-6.1,2L258.9,353z M254,347l2.1-0.3l0.3-1.7l-0.7-0.4l-3.4-0.4l-0.9,1.1l0.4,0.5L254,347z"/>
	<path class="st1" d="M255.8,339.4l7.1,3.9l1.9,4.8l-1.1,5.4l-3.3,1.1l0-0.9l3.4-2.9l-1-4l-3.9-2.3l-0.5,4.7l-4.1,2.4l-3.6-1
		l-2.1-3.2l0.5-3.3l1.9-3.9L255.8,339.4 M253.8,348.5l3.7-0.5l0.7-3.8l-1.9-1.1l-4.5-0.5l-2.2,2.6l1.3,1.8L253.8,348.5 M256.3,336.3
		l-1.1,0.2l-4.8,1l-1.4,0.3l-0.7,1.3l-1.9,3.9l-0.2,0.4l-0.1,0.5l-0.5,3.3l-0.2,1.1l0.6,0.9l2.1,3.2l0.6,1l1.1,0.3l3.6,1l1.2,0.3
		l1.1-0.7l1.6-0.9l0,0.3l0,0.9l0,4.1l3.9-1.3l3.3-1.1l1.7-0.5l0.4-1.7l1.1-5.4l0.2-0.9l-0.3-0.8l-1.9-4.8l-0.4-1l-0.9-0.5l-7.1-3.9
		L256.3,336.3L256.3,336.3z"/>
</g>
<g>
	<path class="st0" d="M404.4,233.6l2.4-2.9l4.2,0l1.1-2.3l-0.5-1.5l-2.3,2.2l-6.1-1l-2.8-4.1l0.6-4.9l3.1-2.8l4.9-2.1l5.4,2.9
		l3.3,8.6l-2,5.9l-5.4,4.3L404.4,233.6z M408.8,224.1l1.3-1.1l-0.3-0.8l-2.3-2.4l-1.4,0.3l-0.1,0.7l0.9,2.2L408.8,224.1z"/>
	<path class="st1" d="M408.9,216l4.3,2.3l2.9,7.5l-1.6,4.9l-4.3,3.4l-3.2-1.3l0.6-0.7l4.5,0l1.7-3.7l-1.6-4.3l-3.4,3.3l-4.7-0.7
		l-2.1-3.1l0.5-3.8l2.5-2.2L408.9,216 M408.9,226l3-2.5l-0.7-2.1l-3.1-3.2l-3.3,0.6l-0.2,2.2l1.2,3L408.9,226 M409,212.7l-1.3,0.6
		l-4,1.7l-0.4,0.2l-0.4,0.3l-2.5,2.2l-0.8,0.7l-0.1,1.1l-0.5,3.8l-0.1,1.2l0.7,1l2.1,3.1l0.7,1l1.3,0.2l1.8,0.3l-0.2,0.3l-0.6,0.7
		l-2.6,3.2l3.8,1.5l3.2,1.3l1.6,0.7l1.4-1.1l4.3-3.4l0.7-0.6l0.3-0.8l1.6-4.9l0.3-1l-0.4-1l-2.9-7.5l-0.4-1l-1-0.5l-4.3-2.3
		L409,212.7L409,212.7z"/>
</g>
<g>
	<path class="st0" d="M418.7,227.7l-3.8-6l0.3-8l0.7-0.4c0.8-0.5,1.6-1,2.4-1.6c0.8-0.5,1.6-1,2.4-1.6l0.6-0.4l6.6,2.1l4,6.6
		l-0.7,8.1l-6,4L418.7,227.7z M425.2,225.1l0.8-0.1l0.4-0.5l-1.5-5.3l-3.7-4.2l-0.5,0.1l-0.5,0.7l1.8,5.6L425.2,225.1z"/>
	<path class="st1" d="M421.4,211.4l5.3,1.7l3.4,5.7l-0.6,6.9l-4.7,3.2l-5.1-2.3l-3.3-5.2l0.2-6.8
		C418.2,213.5,419.8,212.4,421.4,211.4 M424.7,226.7l2.1-0.4l1.2-1.6l-1.8-6.4l-4.5-5.1l-1.9,0.4l-1.3,1.7l2.1,6.7L424.7,226.7
		 M420.9,208.1l-1.2,0.8c-0.8,0.5-1.6,1-2.4,1.6c-0.8,0.5-1.6,1-2.4,1.6l-1.3,0.9l-0.1,1.6l-0.2,6.8l0,0.9l0.5,0.8l3.3,5.2l0.5,0.8
		l0.8,0.4l5.1,2.3l1.5,0.7l1.4-0.9l4.7-3.2l1.2-0.8l0.1-1.4l0.6-6.9l0.1-1l-0.5-0.8l-3.4-5.7l-0.6-1l-1.1-0.3l-5.3-1.7L420.9,208.1
		L420.9,208.1z M423.2,220.6l-0.5-1.7l0.9,1l0.5,1.6L423.2,220.6L423.2,220.6z"/>
</g>
<g>
	<polygon class="st0" points="436.6,220.2 431.8,222 430.3,217.9 435.1,216.1 433.3,211.3 437.5,209.8 439.2,214.6 444,212.9 
		445.5,217 440.7,218.7 442.5,223.6 438.4,225.1 	"/>
	<path class="st1" d="M436.6,211.7l1.8,4.8l4.8-1.8l0.5,1.3l-4.8,1.8l1.8,4.8l-1.3,0.5l-1.8-4.8l-4.8,1.8l-0.5-1.3l4.8-1.8l-1.8-4.8
		L436.6,211.7 M438.4,207.9l-2.8,1l-1.3,0.5l-2.8,1l1,2.8l0.7,2l-2,0.7l-2.8,1l1,2.8l0.5,1.3l1,2.8l2.8-1l2-0.7l0.7,2l1,2.8l2.8-1
		l1.3-0.5l2.8-1l-1-2.8l-0.7-2l2-0.7l2.8-1l-1-2.8l-0.5-1.3l-1-2.8l-2.8,1l-2,0.7l-0.7-2L438.4,207.9L438.4,207.9z"/>
</g>
<g>
	<polygon class="st0" points="623.1,218.3 624.3,215.1 626.8,215.9 627.7,215.6 631.3,205.9 629.8,205.9 628,205.2 629.1,202.1 
		633.9,202 635.6,201.8 639,203 633.6,217.8 634.1,218.5 636.6,219.5 635.4,222.8 	"/>
	<path class="st1" d="M635.5,203.3l1.6,0.6l-5.1,14.1l1.2,1.7l1.6,0.6l-0.2,0.5l-9.5-3.4l0.2-0.5l1.6,0.5l2.1-0.5l4.6-12.6l-3.4,0.1
		l-0.2-0.1l0.3-0.7l3.8-0.1L635.5,203.3 M635.8,200.3l-0.7,0.1l-1.3,0.2l-3.7,0.1l-2.1,0l-0.7,1.9l-0.3,0.7l-1,2.8l2.8,1l0.2,0.1
		l0.1,0l-2.5,7l-0.5-0.2l-2.7-0.9l-1,2.7l-0.2,0.5l-1,2.8l2.8,1l9.5,3.4l2.8,1l1-2.8l0.2-0.5l1-2.7l-2.7-1.1l-0.5-0.2l4.5-12.5
		l1-2.8l-2.8-1l-1.6-0.6L635.8,200.3L635.8,200.3z"/>
</g>
<g>
	<path class="st0" d="M639.9,224.8l-2.9-5.1l0.4-6l3.6-5.2l4.3-2.3l5,0.5l5.4,3.9l-3,5.1l-1.7-0.6l1.9,1.8l-0.5,5l-3.5,3.4l-4.7,0.8
		L639.9,224.8z M645.3,221.8l0.7-0.7l0.8-2.3l-0.9-1.9l-2.3,0.1l-0.4,1.4l0.6,2.7L645.3,221.8z M650.1,214.2l-0.2-2.3l-0.4-1
		l-1.4-0.6l-1.9,0.7l-1.5,2.2l4-0.4L650.1,214.2z"/>
	<path class="st1" d="M645.6,207.8l4.1,0.4l4,2.9l-1.6,2.8l-0.5-0.2l-0.2-2.2l-0.7-1.8l-2.5-1.1l-2.9,1.1l-1.9,2.8l-0.7,2.6l0.1-0.2
		l5.4-0.5l3.3,3.1l-0.3,3.8l-2.8,2.7l-3.9,0.7l-3.5-1.1l-2.4-4.2l0.3-5.1l3.2-4.5L645.6,207.8 M645.6,223.5l1.7-1.6l1.2-3.2
		l-1.6-3.3l-4.3,0.2l-0.7,2.9l0.8,3.8L645.6,223.5 M645,204.7l-0.8,0.4l-3.6,1.9l-0.6,0.3l-0.4,0.6l-3.2,4.5l-0.5,0.7l0,0.8
		l-0.3,5.1l-0.1,0.9l0.4,0.8l2.4,4.2l0.6,1l1.1,0.4l3.5,1.1l0.7,0.2l0.7-0.1l3.9-0.7l0.9-0.2l0.7-0.6l2.8-2.7l0.8-0.8l0.1-1.1
		l0.3-3.8l0.1-1.4l-0.2-0.2l0.4-0.7l1.6-2.8l1.4-2.3l-2.2-1.6l-4-2.9l-0.7-0.5l-0.8-0.1l-4.1-0.4L645,204.7L645,204.7z M644.9,218.5
		l0.2,0l0.2,0.4l-0.2,0.5L644.9,218.5L644.9,218.5L644.9,218.5z"/>
</g>
<g>
	
		<rect x="654.7" y="217.3" transform="matrix(0.3417 -0.9398 0.9398 0.3417 223.2044 763.9689)" class="st0" width="4.4" height="10.7"/>
	<path class="st1" d="M653.6,220.7l7.2,2.6l-0.5,1.4l-7.2-2.6L653.6,220.7 M651.8,216.8l-1,2.8l-0.5,1.4l-1,2.8l2.8,1l7.2,2.6l2.8,1
		l1-2.8l0.5-1.4l1-2.8l-2.8-1l-7.2-2.6L651.8,216.8L651.8,216.8z"/>
</g>
<g>
	<polygon class="st0" points="658.7,231.3 659.9,228 662.4,228.8 663.3,228.6 666.8,218.8 665.4,218.8 663.5,218.2 664.6,215.1 
		669.4,215 671.2,214.7 674.6,216 669.2,230.7 669.7,231.5 672.2,232.5 671,235.7 	"/>
	<path class="st1" d="M671,216.3l1.6,0.6l-5.1,14.1l1.2,1.7l1.6,0.6l-0.2,0.5l-9.5-3.4l0.2-0.5l1.6,0.5l2.1-0.5l4.6-12.6l-3.4,0.1
		l-0.2-0.1l0.3-0.7l3.8-0.1L671,216.3 M671.3,213.2l-0.7,0.1l-1.3,0.2l-3.7,0.1l-2.1,0l-0.7,1.9l-0.3,0.7l-1,2.8l2.8,1l0.2,0.1
		l0.1,0l-2.5,7l-0.5-0.2l-2.7-0.9l-1,2.7l-0.2,0.5l-1,2.8l2.8,1l9.5,3.4l2.8,1l1-2.8l0.2-0.5l1-2.7l-2.7-1.1l-0.5-0.2l4.5-12.5
		l1-2.8l-2.8-1l-1.6-0.6L671.3,213.2L671.3,213.2z"/>
</g>
<g>
	<path class="st0" d="M674.1,237.6l-3-5.6l3.6-0.7l3.3,2.7l2.3-1.1l0.5-1.5l-3.2,0.2l-4-4.6l0.4-4.9l3.6-3.4l4.2-0.1l5.1,1.5
		l2.2,5.7l-3,8.7l-5.3,3.2L674.1,237.6z M682.3,227.5l0.3-0.8l-0.2-3.4l-1.2-0.7l-0.5,0.5l-0.7,2.3l0.7,2.1L682.3,227.5z"/>
	<path class="st1" d="M681.7,220.2l4.2,1.2l1.8,4.5l-2.6,7.7l-4.4,2.7l-5.5-0.2l-1.6-3.1l0.9-0.2l3.5,2.9l3.7-1.7l1.6-4.3l-4.7,0.3
		l-3.1-3.6l0.3-3.7l2.8-2.6L681.7,220.2 M683.3,229.1l0.7-2.1l-0.3-4.5l-2.9-1.7l-1.5,1.6l-1,3.1l1.2,3.5L683.3,229.1 M682.1,217.1
		l-0.5,0l-3.4,0.1l-1.1,0l-0.8,0.8l-2.8,2.6l-0.9,0.8l-0.1,1.2l-0.3,3.7l-0.1,1.3l0.8,1l1.2,1.4l-0.3,0.1l-0.9,0.2l-4,0.7l1.9,3.6
		l1.6,3.1l0.8,1.5l1.7,0l5.5,0.2l0.9,0l0.8-0.5l4.4-2.7l0.9-0.6l0.3-1l2.6-7.7l0.4-1l-0.4-1l-1.8-4.5l-0.5-1.4l-1.4-0.4l-4.2-1.2
		L682.1,217.1L682.1,217.1z"/>
</g>
<g>
	<polygon class="st0" points="810.1,345 812.9,343.5 823,345.8 826.2,345.4 827,343.7 826.6,342.4 822,342.4 820,339.6 826.2,336.9 
		830.9,340.6 833.3,345.6 831.7,350.6 826.4,352.6 818.9,349.2 823.5,356.5 817.9,358.3 	"/>
	<path class="st1" d="M826,338.6l3.7,2.9l2,4.2l-1.2,3.7l-4.1,1.6l-10.4-4.8l-0.8-0.1l6,9.5l-2.6,0.8l-6.4-11l0.9-0.5l9.8,2.3
		l4.4-0.5l1.3-3l-0.9-3l-4.9,0l-0.5-0.6L826,338.6 M826.4,335.1l-1.7,0.7l-3.7,1.6l-3.5,1.5l2.3,3l0.5,0.6l0.9,1.2l1.5,0l2.5,0
		l-0.1,0.2l-2.1,0.3l-9.3-2.2l-1.1-0.3l-1,0.6l-0.9,0.5l-2.7,1.5l1.5,2.7l6.4,11l1.2,2.1l2.3-0.7l2.6-0.8l3.7-1.2l-2.1-3.3l-0.9-1.4
		l2.3,1.1l1.2,0.5l1.2-0.5l4.1-1.6l1.3-0.5l0.4-1.3l1.2-3.7l0.4-1.2l-0.5-1.1l-2-4.2l-0.3-0.6l-0.5-0.4l-3.7-2.9L826.4,335.1
		L826.4,335.1z"/>
</g>
<g>
	<path class="st0" d="M820.1,363.4l1.7-6.6l5.2-4.8l7.9-1.1l0.5,0.6c0.6,0.7,1.3,1.4,1.9,2.1c0.7,0.7,1.3,1.4,2,2.1l0.5,0.5
		l-0.9,6.8l-5.8,5.1l-8.1,0.7L820.1,363.4z M826.4,363.7l5-2.4l3.5-4.4l-0.2-0.5l-0.8-0.4l-5.2,2.7l-3.1,4l0.3,0.7L826.4,363.7z"/>
	<path class="st1" d="M834.4,352.4c1.3,1.4,2.6,2.7,3.9,4.1l-0.8,5.6l-5,4.4l-6.9,0.6l-3.9-4.1l1.4-5.4l4.6-4.2L834.4,352.4
		 M826.4,365.4l6-2.9l4.2-5.4l-0.8-1.8l-1.9-1l-6.2,3.3l-3.8,4.9l0.7,2L826.4,365.4 M835.6,349.2l-1.5,0.2l-6.7,1l-0.9,0.1l-0.7,0.6
		l-4.6,4.2l-0.7,0.6l-0.2,0.9l-1.4,5.4l-0.4,1.6l1.2,1.2l3.9,4.1l1,1l1.4-0.1l6.9-0.6l1-0.1l0.7-0.7l5-4.4l0.8-0.7l0.2-1.1l0.8-5.6
		l0.2-1.4l-1-1c-0.7-0.7-1.3-1.4-2-2.1c-0.6-0.7-1.3-1.4-1.9-2L835.6,349.2L835.6,349.2z M829.6,359.9l1.6-0.8l-0.8,1l-1.5,0.7
		L829.6,359.9L829.6,359.9z"/>
</g>
<g>
	
		<rect x="832.2" y="366.7" transform="matrix(0.8661 -0.4999 0.4999 0.8661 -74.2309 466.9577)" class="st0" width="4.4" height="10.7"/>
	<path class="st1" d="M833.2,368.4l3.8,6.6l-1.2,0.7l-3.8-6.6L833.2,368.4 M834.2,364.3l-2.6,1.5l-1.2,0.7l-2.6,1.5l1.5,2.6l3.8,6.6
		l1.5,2.6l2.6-1.5l1.2-0.7l2.6-1.5l-1.5-2.6l-3.8-6.6L834.2,364.3L834.2,364.3z"/>
</g>
<g>
	<polygon class="st0" points="830,379.5 832.8,378 842.9,380.3 846.2,379.9 846.9,378.2 846.5,376.9 841.9,376.9 839.9,374.1 
		846.1,371.4 850.8,375.1 853.3,380.1 851.6,385.1 846.3,387.1 838.8,383.7 843.4,391 837.8,392.8 	"/>
	<path class="st1" d="M845.9,373.1l3.7,2.9l2,4.2l-1.2,3.7l-4.1,1.6l-10.4-4.8l-0.8-0.1l6,9.5l-2.6,0.8l-6.4-11l0.9-0.5l9.8,2.3
		l4.4-0.5l1.3-3l-0.9-3l-4.9,0l-0.5-0.6L845.9,373.1 M846.3,369.6l-1.7,0.7L841,372l-3.5,1.5l2.3,3l0.5,0.6l0.9,1.2l1.5,0l2.5,0
		l-0.1,0.2l-2.1,0.3l-9.3-2.2l-1.1-0.3l-1,0.6l-0.9,0.5l-2.7,1.5l1.5,2.7l6.4,11l1.2,2.1l2.3-0.7l2.6-0.8l3.7-1.2l-2.1-3.3l-0.9-1.4
		l2.3,1.1l1.2,0.5l1.2-0.5l4.1-1.6l1.3-0.5l0.4-1.3l1.2-3.7l0.4-1.2l-0.5-1.1l-2-4.2l-0.3-0.6l-0.5-0.4l-3.7-2.9L846.3,369.6
		L846.3,369.6z"/>
</g>
<g>
	<path class="st0" d="M844.6,401.7l-5.1-4.6l1.3-6.3l3.2,1.8l0.8,4.2l2.4,0.7l1.4-0.8l-2.6-1.9l-0.1-6.1l3.5-3.5l4.9-0.2l3.3,2.6
		l2.9,4.4l-2,5.8l-7.9,4.8L844.6,401.7z M852.2,394.7l0.7-0.4l2-2.7l-0.5-1.3l-0.7,0.1l-2,1.3l-0.8,2L852.2,394.7z"/>
	<path class="st1" d="M853.9,386.6l2.6,2.1l2.4,3.6l-1.6,4.6l-6.9,4.2l-5.2-0.8l-4.1-3.7l0.7-3.4l0.8,0.5l0.8,4.4l3.9,1.1l3.9-2.3
		l-3.9-2.8l-0.1-4.7l2.6-2.6L853.9,386.6 M852,396.5l1.9-1.1l2.6-3.6l-1.2-3.2l-2.2,0.2l-2.7,1.7l-1.4,3.5L852,396.5 M854.8,383.5
		l-1.1,0.1l-3.8,0.2l-1.2,0.1l-0.8,0.8l-2.6,2.6l-0.9,0.9l0,1.3l0,1.8l-0.3-0.2l-0.8-0.5l-3.6-2l-0.8,4l-0.7,3.4l-0.4,1.7l1.3,1.2
		l4.1,3.7l0.7,0.6l0.9,0.1l5.2,0.8l1.1,0.2l0.9-0.6l6.9-4.2l0.9-0.6l0.4-1l1.6-4.6l0.5-1.4l-0.8-1.2L859,387l-0.3-0.4l-0.4-0.3
		l-2.6-2.1L854.8,383.5L854.8,383.5z"/>
</g>
<g>
	<path class="st0" d="M734.3,821.9l1.7-1.6l0.2-0.8l-0.6-0.7l-5.4,4.6l-1.9-2.3l-1.2-15l3.6-3l7.2,8.6l2.6-2.2l2.5,3l-2.6,2.2
		l0.5,0.7l0.8,0l1.9-1.4l2.2,2.6l-9.5,7.9L734.3,821.9z M731.9,816.8l1.2-1l-1.4-1.7L731.9,816.8z"/>
	<path class="st1" d="M730.5,805.3l7.2,8.6l2.6-2.2l0.6,0.7l-2.6,2.2l2,2.4l2-0.1l1.1-0.9l0.3,0.4l-7.2,6l-0.3-0.4l1-1l0.5-1.9
		l-2-2.4l-5.4,4.6l-0.6-0.7l-1.1-13.7L730.5,805.3 M731.3,819.2l3.9-3.3l-5.4-6.4l0.7,8.7L731.3,819.2 M730.9,801l-2.3,1.9l-1.8,1.5
		l-1.2,1l0.1,1.5l1.1,13.7l0.1,1l0.6,0.7l0.6,0.7l1.9,2.3l2.3-1.9l0.8-0.7l0.9,1.1l0.3,0.4l1.9,2.3l2.3-1.9l7.2-6l2.3-1.9l-1.9-2.3
		l-0.3-0.4l-0.9-1l0.3-0.2l-1.9-2.3l-0.6-0.7l-1.9-2.3l-2.3,1.9l-0.3,0.3l-5.3-6.3L730.9,801L730.9,801z"/>
</g>
<g>
	<path class="st0" d="M742.7,813.4l-5.6-4.3l-2.5-7.6l0.5-0.6c0.6-0.8,1.2-1.6,1.8-2.4c0.5-0.7,1.1-1.5,1.6-2.2l0.4-0.6l6.9-0.3
		l6,4.8l2.1,7.9l-4.3,5.8L742.7,813.4z M747.9,808.7l0.7-0.4l0.2-0.6l-3.2-4.5l-4.9-2.6l-0.5,0.3l-0.3,0.8l3.6,4.7L747.9,808.7z"/>
	<path class="st1" d="M745.3,796.9l5.2,4.2l1.8,6.7l-3.4,4.6l-5.6-0.4l-4.9-3.8l-2.1-6.4c1.1-1.5,2.2-3,3.4-4.6L745.3,796.9
		 M748,810.4l1.9-1.1l0.6-1.9l-3.9-5.4l-6-3.2l-1.7,1.1l-0.7,2.1l4.3,5.6L748,810.4 M746.3,793.9l-1.1,0l-5.6,0.2l-1.4,0.1l-0.9,1.1
		c-0.5,0.7-1.1,1.5-1.6,2.2c-0.6,0.8-1.2,1.6-1.8,2.4l-0.9,1.3l0.5,1.5l2.1,6.4l0.3,0.9l0.7,0.6l4.9,3.8l0.7,0.5l0.9,0.1l5.6,0.4
		l1.7,0.1l1-1.3l3.4-4.6l0.8-1.2l-0.4-1.4l-1.8-6.7l-0.3-1l-0.8-0.6l-5.2-4.2L746.3,793.9L746.3,793.9z M744.5,805.2l-1.1-1.4
		l1.2,0.6l1,1.4L744.5,805.2L744.5,805.2z"/>
</g>
<g>
	
		<rect x="750.3" y="796.1" transform="matrix(0.766 -0.6428 0.6428 0.766 -336.3807 672.5457)" class="st0" width="10.7" height="4.4"/>
	<path class="st1" d="M758.1,795.3l0.9,1.1l-5.9,4.9l-0.9-1.1L758.1,795.3 M758.5,791.1l-2.3,1.9l-5.9,4.9l-2.3,1.9l1.9,2.3l0.9,1.1
		l1.9,2.3l2.3-1.9l5.9-4.9l2.3-1.9l-1.9-2.3l-0.9-1.1L758.5,791.1L758.5,791.1z"/>
</g>
<g>
	<path class="st0" d="M764.8,796.2l1.7-1.6l0.2-0.8l-0.6-0.7l-5.4,4.6l-1.9-2.2l-1.2-15l3.6-3l7.2,8.6l2.6-2.2l2.5,3l-2.6,2.2
		l0.5,0.7l0.8,0l1.9-1.5l2.2,2.6l-9.5,7.9L764.8,796.2z M762.4,791.2l1.2-1l-1.4-1.7L762.4,791.2z"/>
	<path class="st1" d="M761.1,779.6l7.2,8.6l2.6-2.2l0.6,0.7l-2.6,2.2l2,2.4l2-0.1l1.1-0.9l0.3,0.4l-7.2,6l-0.3-0.4l1-1l0.5-1.9
		l-2-2.4l-5.4,4.6l-0.6-0.7l-1.1-13.7L761.1,779.6 M761.9,793.6l3.9-3.3l-5.4-6.4l0.7,8.7L761.9,793.6 M761.5,775.4l-2.3,1.9
		l-1.8,1.5l-1.2,1l0.1,1.5l1.1,13.7l0.1,1l0.6,0.7l0.6,0.7l1.9,2.3l2.3-1.9l0.8-0.7l0.9,1.1l0.3,0.4l1.9,2.3l2.3-1.9l7.2-6l2.3-1.9
		l-1.9-2.3l-0.3-0.4l-0.9-1l0.3-0.2l-1.9-2.3l-0.6-0.7l-1.9-2.3l-2.3,1.9l-0.3,0.3l-5.3-6.3L761.5,775.4L761.5,775.4z"/>
</g>
<g>
	<path class="st0" d="M773.1,788.7l1.2-3.5l4-1.5l0.2-2.5l-1-1.2l-1.4,2.9l-6,1.2l-4-2.8l-1.1-4.8l2-3.7l3.9-3.7l6.1,0.9l6,6.9
		l0.2,6.2l-3.6,5.8L773.1,788.7z M774,778.3l0.9-1.5l-0.5-0.6l-3-1.5l-1.2,0.7l0.2,0.7l1.6,1.8L774,778.3z"/>
	<path class="st1" d="M771.3,770.7l4.8,0.7l5.3,6.1l0.1,5.2l-2.9,4.7l-3.5-0.1l0.3-0.9l4.2-1.6l0.4-4.1l-2.9-3.5l-2.1,4.3l-4.7,0.9
		l-3.1-2.1l-0.8-3.7l1.6-3L771.3,770.7 M774.8,780l1.9-3.3l-1.4-1.7l-4-2l-2.9,1.7l0.6,2.1l2.2,2.4L774.8,780 M770.3,767.5l-1.1,1
		l-3.2,3l-0.4,0.3l-0.2,0.4l-1.6,3l-0.5,1l0.2,1.1l0.8,3.7l0.3,1.1l1,0.7l3.1,2.1l1,0.7l1.3-0.2l1.8-0.3l-0.1,0.3l-0.3,0.9l-1.4,3.9
		l4.1,0.1l3.5,0.1l1.7,0.1l0.9-1.5l2.9-4.7l0.5-0.8l0-0.9l-0.1-5.2l0-1.1l-0.7-0.8l-5.3-6.1l-0.7-0.8l-1.1-0.2l-4.8-0.7L770.3,767.5
		L770.3,767.5z"/>
</g>
<g>
	<path class="st0" d="M863.4,634.1l0.6-3.4l4.6-1.4l0-1.8l-1-0.9l-2.3,0.5l-1.5,1.6l-0.5,2.6l-3.1-0.5l-0.2,3l-7.1-2l-0.3-6.2
		l1.8-5.2l4.4-1.9l4.2,2.3l0.1-0.3l5.1-1.1l4.4,4.3l0.3,6.1l-3.1,5.1L863.4,634.1z M859.8,629.7l0.4-2.3l-1.4-2l-1.2,0l-0.8,1.6
		L859.8,629.7z"/>
	<path class="st1" d="M858.8,619.9l2.9,1.6l0.7,4.5l1.8-4.5l3.6-0.8l3.4,3.3l0.3,5.1l-2.3,3.9l-4-0.4l0.2-0.9l4.8-1.5l-0.1-3.5
		l-2-1.9l-3.6,0.8l-2.1,2.3l-0.3,1.5l-0.8-0.1l0.4-2.2l-2.2-3.1l-2.9,0l-1.8,3.5l3.9,3.3l-0.1,0.8l-4.3-1.2l-0.2-4.9l1.5-4.3
		L858.8,619.9 M859,616.6l-1.3,0.6l-3.1,1.3l-1.2,0.5l-0.4,1.3l-1.5,4.3l-0.2,0.5l0,0.6l0.2,4.9l0.1,2.2l2.1,0.6l4.3,1.2l3.5,1
		l0.3-3.1l0.5,0.1l-0.5,3l3.2,0.3l4,0.4l1.9,0.2l1-1.6l2.3-3.9l0.5-0.8l0-0.9l-0.3-5.1l-0.1-1.2l-0.9-0.8l-3.4-3.3l-1.2-1.1
		l-1.6,0.3l-3.6,0.8l-0.7,0.1l-2.7-1.5L859,616.6L859,616.6z M866.1,628.3l0.8-0.2l-0.9,0.3L866.1,628.3L866.1,628.3z"/>
</g>
<g>
	<path class="st0" d="M856,615.6l0-0.8c-0.1-1-0.1-1.9-0.2-2.9c-0.1-0.9-0.1-1.9-0.2-2.8l0-0.7l5.1-4.6l7.7-0.2l6.6,4.7l0.5,7.2
		l-5.6,4l-7.1,0.3L856,615.6z M866,613.6l4.9-1.1l0.3-0.7l-0.2-0.6l-5.4-1.4l-5.5,1.1l-0.2,0.5l0.3,0.8L866,613.6z"/>
	<path class="st1" d="M867.9,605.2l5.7,4l0.4,5.7l-4.5,3.2l-6.2,0.3l-5.8-3.6c-0.1-1.9-0.2-3.8-0.3-5.7l4.2-3.8L867.9,605.2
		 M866,615.2l6-1.3l0.7-2L872,610l-6.4-1.6l-6.7,1.4l-0.6,1.9l0.8,2L866,615.2 M868.8,602.1l-1,0l-6.6,0.1l-1.1,0l-0.8,0.8l-4.2,3.8
		l-1.1,1l0.1,1.4c0.1,0.9,0.1,1.9,0.2,2.8c0.1,1,0.1,1.9,0.2,2.9l0.1,1.6l1.3,0.8l5.8,3.6l0.8,0.5l0.9,0l6.2-0.3l0.9,0l0.7-0.5
		l4.5-3.2l1.4-1l-0.1-1.7l-0.4-5.7l-0.1-1.4l-1.2-0.8l-5.7-4L868.8,602.1L868.8,602.1z M864.2,611.7l1.3-0.3l1.6,0.4l-1.1,0.2
		L864.2,611.7L864.2,611.7z"/>
</g>
<g>
	
		<rect x="864.8" y="597.5" transform="matrix(0.1736 -0.9848 0.9848 0.1736 128.4751 1352.4967)" class="st0" width="10.7" height="4.4"/>
	<path class="st1" d="M870.1,595.8l1.4,0.2l-1.3,7.5l-1.4-0.2L870.1,595.8 M867.6,592.3l-0.5,3l-1.3,7.5l-0.5,3l3,0.5l1.4,0.2l3,0.5
		l0.5-3l1.3-7.5l0.5-3l-3-0.5l-1.4-0.2L867.6,592.3L867.6,592.3z"/>
</g>
<g>
	<path class="st0" d="M870.4,594.8l0.6-3.4l4.6-1.4l0-1.8l-1-0.9l-2.3,0.5l-1.5,1.6l-0.5,2.6l-3.1-0.5l-0.2,3l-7.1-2l-0.3-6.2
		l1.8-5.2l4.4-1.9l4.2,2.3l0.1-0.3l5.1-1.1l4.4,4.3l0.3,6.1l-3.1,5.1L870.4,594.8z M866.7,590.5l0.4-2.3l-1.4-2l-1.2,0l-0.8,1.6
		L866.7,590.5z"/>
	<path class="st1" d="M865.7,580.7l2.9,1.6l0.7,4.5l1.8-4.5l3.6-0.8l3.4,3.3l0.3,5.1l-2.3,3.9l-4-0.4l0.2-0.9l4.8-1.5l-0.1-3.5
		l-2-1.9l-3.6,0.8l-2.1,2.3l-0.3,1.5l-0.8-0.1l0.4-2.2l-2.2-3.1l-2.9,0l-1.8,3.5l3.9,3.3l-0.1,0.8l-4.3-1.2l-0.2-4.9l1.5-4.3
		L865.7,580.7 M865.9,577.4l-1.3,0.6l-3.1,1.3l-1.2,0.5l-0.4,1.3l-1.5,4.3l-0.2,0.5l0,0.6l0.2,4.9l0.1,2.2l2.1,0.6l4.3,1.2l3.5,1
		l0.3-3.1l0.5,0.1l-0.5,3l3.2,0.3l4,0.4l1.9,0.2l1-1.6l2.3-3.9l0.5-0.8l0-0.9l-0.3-5.1l-0.1-1.2l-0.9-0.8l-3.4-3.3l-1.2-1.1
		l-1.6,0.3l-3.6,0.8l-0.7,0.1l-2.7-1.5L865.9,577.4L865.9,577.4z M873.1,589.1l0.8-0.2l-0.9,0.3L873.1,589.1L873.1,589.1z"/>
</g>
<g>
	<path class="st0" d="M876.1,577.7l2.1-3.7l-1.4-2.1l-1.6-0.3l0.8,3.1l-3.9,4.8l-4.9,0.4l-3.9-3l-0.8-4.1l0.6-5.3l5.2-3.2l9.1,1.4
		l4.1,4.6l1,6.8l-5,4L876.1,577.7z M869.4,573.6l1.9-1l-0.3-1.7l-0.8-0.1l-3.3,0.8l-0.5,1.3l0.6,0.4L869.4,573.6z"/>
	<path class="st1" d="M868.5,565.9l8,1.2l3.5,3.9l0.8,5.5l-2.7,2.1l-0.3-0.9l2.2-3.9l-2.3-3.4l-4.5-0.8l1.2,4.6l-3,3.7l-3.7,0.3
		l-3-2.3l-0.7-3.3l0.5-4.3L868.5,565.9 M869.7,575.2l3.3-1.8l-0.6-3.8l-2.2-0.4l-4.4,1.1l-1.1,3.2l1.8,1.2L869.7,575.2 M867.9,562.8
		l-0.9,0.6l-4.2,2.5l-1.3,0.8l-0.2,1.5l-0.5,4.3l-0.1,0.5l0.1,0.5l0.7,3.3l0.2,1.1l0.9,0.7l3,2.3l0.9,0.7l1.2-0.1l3.7-0.3l1.3-0.1
		l0.8-1l1.1-1.4l0.1,0.3l0.3,0.9l1.4,3.8l3.2-2.5l2.7-2.1l1.4-1.1l-0.3-1.7l-0.8-5.5l-0.1-0.9l-0.6-0.7l-3.5-3.9l-0.7-0.8l-1.1-0.2
		l-8-1.2L867.9,562.8L867.9,562.8z"/>
</g>
</svg>
